<?xml version="1.0" encoding="iso-8859-1"?>
<!-- Generator: Adobe Illustrator 23.0.5, SVG Export Plug-In . SVG Version: 6.00 Build 0)  -->
<svg version="1.1" xmlns="http://www.w3.org/2000/svg" xmlns:xlink="http://www.w3.org/1999/xlink" x="0px" y="0px"
	 viewBox="0 0 100 100" style="enable-background:new 0 0 100 100;" xml:space="preserve">
<g id="Builder">
	<g>
		<g>
			<path style="fill:#FFFFFF;" d="M61.748,68.553c-2.993,2.247-6.625,3.631-10.355,3.838c-4.566,0.252-9.205-1.258-12.8-4.063
				c2.13-1.528,3.29-3.91,3.182-7.416c-0.018-0.827-0.126-1.663-0.27-2.499l16.98,0.108c-0.135,0.791-0.243,1.591-0.261,2.391
				C58.108,64.598,59.402,67.043,61.748,68.553z"/>
			<path style="fill:#FFFFFF;" d="M84.643,94.944H15.357c-0.414-4.306-0.809-8.701,0.126-12.926
				c0.935-4.225,3.461-8.333,7.416-10.077c2.76-1.204,5.861-1.169,8.854-1.456c2.796-0.261,5.133-0.935,6.841-2.157
				c3.596,2.805,8.234,4.315,12.8,4.063c3.73-0.207,7.362-1.591,10.355-3.838c1.672,1.088,3.883,1.69,6.499,1.933
				c2.993,0.288,6.094,0.252,8.854,1.456c3.955,1.744,6.481,5.852,7.416,10.077C85.452,86.243,85.057,90.639,84.643,94.944z"/>
			<path style="fill:#0073AA;" d="M15.213,83.65c-0.539,3.719-0.216,7.539,0.144,11.294h69.286
				c0.361-3.755,0.683-7.576,0.144-11.294H15.213z"/>
			<path style="fill:#FFFFFF;" d="M67.749,34.528c0.534,5.197,0.064,10.598-2.122,15.351c-1.398,3.037-3.558,5.769-6.239,7.726
				c-1.741,1.271-3.711,2.211-5.82,2.694c-4.498,1.029-9.251-0.178-13.076-2.808c-1.754-1.207-3.304-2.707-4.537-4.422
				c-3.723-5.185-4.727-12.009-3.52-18.299"/>
			<path style="fill:#0073AA;" d="M69.479,27.321l-38.095,0.62c-1.034-4.8,0.53-10.014,3.784-13.681
				c3.011-3.38,7.317-5.492,11.82-6.085L53.703,8.4c3.865,0.755,7.524,2.598,10.31,5.348C67.573,17.281,69.632,22.332,69.479,27.321
				z"/>
			<path style="fill:none;stroke:#000000;stroke-width:2;stroke-linecap:round;stroke-linejoin:round;stroke-miterlimit:10;" d="
				M41.504,58.415c0.148,0.834,0.251,1.667,0.274,2.501c0.194,6.326-3.757,8.987-10.026,9.569c-2.992,0.285-6.098,0.251-8.85,1.462
				c-3.962,1.736-6.486,5.847-7.422,10.072s-0.537,8.621-0.126,12.926"/>
			<path style="fill:none;stroke:#000000;stroke-width:2;stroke-linecap:round;stroke-linejoin:round;stroke-miterlimit:10;" d="
				M58.484,58.517c-0.137,0.799-0.24,1.599-0.263,2.398c-0.194,6.326,3.757,8.987,10.026,9.569c2.992,0.285,6.098,0.251,8.85,1.462
				c3.962,1.736,6.486,5.847,7.422,10.072s0.537,8.621,0.126,12.926"/>
			<path style="fill:none;stroke:#000000;stroke-width:2;stroke-linecap:round;stroke-linejoin:round;stroke-miterlimit:10;" d="
				M67.749,34.528c0.534,5.197,0.064,10.598-2.122,15.351c-1.398,3.037-3.558,5.769-6.239,7.726
				c-1.741,1.271-3.711,2.211-5.82,2.694c-4.498,1.029-9.251-0.178-13.076-2.808c-1.754-1.207-3.304-2.707-4.537-4.422
				c-3.723-5.185-4.727-12.009-3.52-18.299"/>
			<path style="fill:#FFFFFF;" d="M55.321,27.5c4.626-0.165,9.404-0.28,14.156-0.178c0.611,0.013,1.221,0.029,1.83,0.049
				c1.843,0.061,3.282,1.605,3.215,3.447c-0.041,1.11-0.025,2.221,0.077,3.328c-2.275,0.14-4.562,0.267-6.849,0.381
				c-11.767,0.546-23.547,0.623-35.314,0.241c-2.059-0.064-4.105-0.14-6.163-0.229c0.012-1.148,0.024-2.297,0.035-3.445
				c0.018-1.97,1.723-3.478,3.683-3.273c0.451,0.047,0.915,0.088,1.391,0.123c3.876,0.28,8.603,0.165,13.788-0.025L55.321,27.5z"/>
			<path style="fill:none;stroke:#000000;stroke-width:2;stroke-linecap:round;stroke-linejoin:round;stroke-miterlimit:10;" d="
				M55.321,27.5c4.626-0.165,9.404-0.28,14.156-0.178c0.611,0.013,1.221,0.029,1.83,0.049c1.843,0.061,3.282,1.605,3.215,3.447
				c-0.041,1.11-0.025,2.221,0.077,3.328c-2.275,0.14-4.562,0.267-6.849,0.381c-11.767,0.546-23.547,0.623-35.314,0.241
				c-2.059-0.064-4.105-0.14-6.163-0.229c0.012-1.148,0.024-2.297,0.035-3.445c0.018-1.97,1.723-3.478,3.683-3.273
				c0.451,0.047,0.915,0.088,1.391,0.123c3.876,0.28,8.603,0.165,13.788-0.025"/>
			<g>
				
					<line style="fill:none;stroke:#000000;stroke-linecap:round;stroke-linejoin:round;stroke-miterlimit:10;" x1="29.011" y1="27.86" x2="26.359" y2="30.512"/>
				<polyline style="fill:none;stroke:#000000;stroke-linecap:round;stroke-linejoin:round;stroke-miterlimit:10;" points="
					32.669,28.022 32.661,28.022 26.269,34.413 				"/>
				
					<line style="fill:none;stroke:#000000;stroke-linecap:round;stroke-linejoin:round;stroke-miterlimit:10;" x1="36.364" y1="28.112" x2="29.793" y2="34.683"/>
				
					<line style="fill:none;stroke:#000000;stroke-linecap:round;stroke-linejoin:round;stroke-miterlimit:10;" x1="40.202" y1="28.076" x2="33.478" y2="34.8"/>
				
					<line style="fill:none;stroke:#000000;stroke-linecap:round;stroke-linejoin:round;stroke-miterlimit:10;" x1="44.121" y1="27.959" x2="37.191" y2="34.89"/>
				
					<line style="fill:none;stroke:#000000;stroke-linecap:round;stroke-linejoin:round;stroke-miterlimit:10;" x1="48.067" y1="27.807" x2="40.912" y2="34.962"/>
				
					<line style="fill:none;stroke:#000000;stroke-linecap:round;stroke-linejoin:round;stroke-miterlimit:10;" x1="52.049" y1="27.636" x2="44.688" y2="34.998"/>
				
					<line style="fill:none;stroke:#000000;stroke-linecap:round;stroke-linejoin:round;stroke-miterlimit:10;" x1="55.996" y1="27.483" x2="48.481" y2="34.998"/>
				
					<line style="fill:none;stroke:#000000;stroke-linecap:round;stroke-linejoin:round;stroke-miterlimit:10;" x1="59.915" y1="27.366" x2="52.301" y2="34.98"/>
				
					<line style="fill:none;stroke:#000000;stroke-linecap:round;stroke-linejoin:round;stroke-miterlimit:10;" x1="63.78" y1="27.303" x2="56.175" y2="34.908"/>
				
					<line style="fill:none;stroke:#000000;stroke-linecap:round;stroke-linejoin:round;stroke-miterlimit:10;" x1="67.582" y1="27.294" x2="60.068" y2="34.809"/>
				
					<line style="fill:none;stroke:#000000;stroke-linecap:round;stroke-linejoin:round;stroke-miterlimit:10;" x1="71.313" y1="27.375" x2="64.005" y2="34.683"/>
				
					<line style="fill:none;stroke:#000000;stroke-linecap:round;stroke-linejoin:round;stroke-miterlimit:10;" x1="73.82" y1="28.66" x2="67.96" y2="34.521"/>
				
					<line style="fill:none;stroke:#000000;stroke-linecap:round;stroke-linejoin:round;stroke-miterlimit:10;" x1="74.495" y1="31.798" x2="71.987" y2="34.305"/>
			</g>
			<path style="fill:none;stroke:#000000;stroke-width:2;stroke-linecap:round;stroke-linejoin:round;stroke-miterlimit:10;" d="
				M53.708,8.401c3.863,0.75,7.523,2.592,10.306,5.35c3.558,3.533,5.617,8.578,5.464,13.572"/>
			<path style="fill:none;stroke:#000000;stroke-width:2;stroke-linecap:round;stroke-linejoin:round;stroke-miterlimit:10;" d="
				M31.38,27.945c-1.029-4.803,0.534-10.014,3.787-13.686c3.012-3.38,7.32-5.49,11.818-6.087"/>
			<path style="fill:none;stroke:#000000;stroke-width:2;stroke-linecap:round;stroke-linejoin:round;stroke-miterlimit:10;" d="
				M38.592,68.326c3.597,2.809,8.233,4.316,12.801,4.065c3.734-0.206,7.365-1.587,10.357-3.837"/>
			<path style="fill:none;stroke:#000000;stroke-width:2;stroke-linecap:round;stroke-linejoin:round;stroke-miterlimit:10;" d="
				M38.593,68.328c3.596,2.805,8.234,4.315,12.8,4.063c3.73-0.207,7.362-1.591,10.355-3.838"/>
			<path style="fill:#0073AA;" d="M47.256,18.501L46.999,8.465c-0.048-1.886,1.481-3.435,3.368-3.409
				c0.023,0,0.045,0.001,0.068,0.001c1.862,0.026,3.341,1.574,3.28,3.435c-0.112,3.394-0.226,6.784-0.336,10.182
				c0.023-0.168,0.045-0.336,0.068-0.504"/>
			<path style="fill:#FFFFFF;" d="M45.859,29.683c1.238,2.12,3.936,3.115,6.137,2.262c2.2-0.853,3.672-3.464,3.346-5.937
				c-0.344-2.613-2.262-3.884-4.62-3.803C44.694,22.413,44.177,26.803,45.859,29.683z"/>
			<path style="fill:none;stroke:#000000;stroke-width:2;stroke-linecap:round;stroke-linejoin:round;stroke-miterlimit:10;" d="
				M47.256,18.501L46.999,8.465c-0.048-1.886,1.481-3.435,3.368-3.409c0.023,0,0.045,0.001,0.068,0.001
				c1.862,0.026,3.341,1.574,3.28,3.435c-0.112,3.394-0.226,6.784-0.336,10.182c0.023-0.168,0.045-0.336,0.068-0.504"/>
			<path style="fill:none;stroke:#000000;stroke-width:2;stroke-linecap:round;stroke-linejoin:round;stroke-miterlimit:10;" d="
				M45.859,29.683c1.238,2.12,3.936,3.115,6.137,2.262c2.2-0.853,3.672-3.464,3.346-5.937c-0.344-2.613-2.262-3.884-4.62-3.803
				C44.694,22.413,44.177,26.803,45.859,29.683z"/>
		</g>
		<path style="fill:none;stroke:#000000;stroke-linecap:round;stroke-linejoin:round;stroke-miterlimit:10;" d="M21.294,80.946
			c-0.29-1.573,0.666-3.175,1.986-4.079c1.32-0.904,2.94-1.24,4.524-1.468c2.826-0.407,5.693-0.534,8.544-0.379"/>
		<path style="fill:none;stroke:#000000;stroke-linecap:round;stroke-linejoin:round;stroke-miterlimit:10;" d="M51.026,55.257
			c3.291-0.683,6.34-2.482,8.529-5.033c2.189-2.551,3.505-5.837,3.682-9.194"/>
		<path style="fill:none;stroke:#000000;stroke-linecap:round;stroke-linejoin:round;stroke-miterlimit:10;" d="M37.493,23.547
			c-0.291-1.948,0.132-3.995,1.173-5.668s2.689-2.958,4.565-3.558"/>
		<path style="fill:none;stroke:#000000;stroke-linecap:round;stroke-linejoin:round;stroke-miterlimit:10;" d="M50.108,24.891
			c0.631-0.318,1.457-0.193,1.965,0.299c0.463,0.448,0.639,1.135,0.586,1.777s-0.31,1.25-0.609,1.822"/>
		<path style="fill:none;stroke:#000000;stroke-linecap:round;stroke-linejoin:round;stroke-miterlimit:10;" d="M51.133,9.314
			c0.042,3.001,0.054,3.87,0.096,6.871"/>
		<path style="fill:none;stroke:#000000;stroke-linecap:round;stroke-linejoin:round;stroke-miterlimit:10;" d="M30.343,77.382
			c2.93-0.692,6.012-0.737,8.961-0.131"/>
	</g>
</g>
<g id="Layer_1">
</g>
</svg>
