<?xml version="1.0" encoding="iso-8859-1"?>
<!-- Generator: Adobe Illustrator 23.0.5, SVG Export Plug-In . SVG Version: 6.00 Build 0)  -->
<svg version="1.1" xmlns="http://www.w3.org/2000/svg" xmlns:xlink="http://www.w3.org/1999/xlink" x="0px" y="0px"
	 viewBox="0 0 110 110" style="enable-background:new 0 0 110 110;" xml:space="preserve">
<g id="Adapter">
	<g>
		<path style="fill:#FFFFFF;" d="M104.997,86.528c0.017,1.611-0.409,3.126-1.167,4.432c-0.766,1.35-1.89,2.473-3.239,3.239
			l-0.009,0.009c-1.21,0.688-2.586,1.088-4.066,1.132l-2.412-0.052l-5.294-0.104l-0.27-0.009c0.096,0,0.2-0.009,0.296-0.017
			c4.406-0.261,7.898-3.796,8.168-8.168c0.017-0.209,0.017-0.418,0.017-0.627c-0.017-1.576-0.026-3.152-0.044-4.746
			c-0.017-1.776-0.035-3.561-0.052-5.355c-0.017-1.776-0.035-3.561-0.044-5.346c-0.026-1.776-0.035-3.561-0.052-5.346
			c-0.017-1.776-0.035-3.561-0.044-5.355c-0.017-1.776-0.035-3.561-0.052-5.346c-0.017-1.785-0.035-3.57-0.052-5.355
			c-0.009-1.785-0.026-3.57-0.044-5.346c-0.017-1.794-0.035-3.579-0.052-5.355c-0.009-1.376-0.026-2.743-0.035-4.11
			c0-0.409-0.009-0.827-0.009-1.236c-0.017-1.785-0.035-3.57-0.061-5.346c-0.009-1.776-0.026-3.535-0.044-5.294v-0.061
			c-0.026-1.533-0.453-2.978-1.175-4.223c-0.644-1.115-1.533-2.081-2.595-2.804c-1.027-0.714-2.212-1.21-3.492-1.419
			c1.628,0,3.257,0.009,4.894,0.017c0.566,0.009,1.132,0.009,1.698,0.017c1.088,0.009,2.133,0.218,3.091,0.592
			c1.236,0.479,2.334,1.237,3.213,2.186c0.906,0.967,1.585,2.125,1.977,3.422c0.235,0.775,0.357,1.593,0.366,2.438
			c0.009,0.67,0.017,1.541,0.026,2.577c0.017,1.463,0.035,3.265,0.052,5.338c0.017,1.628,0.035,3.422,0.044,5.355
			c0.017,1.689,0.035,3.483,0.052,5.355c0.017,1.715,0.035,3.509,0.052,5.346c0.009,1.742,0.026,3.535,0.044,5.355
			c0.017,1.759,0.035,3.535,0.052,5.338v0.009c0.009,1.768,0.026,3.561,0.044,5.346c0.017,1.785,0.035,3.579,0.052,5.355
			c0.017,1.802,0.035,3.587,0.044,5.355c0.017,1.811,0.035,3.605,0.052,5.346c0.017,1.837,0.035,3.622,0.052,5.346
			C104.98,85.135,104.989,85.832,104.997,86.528z"/>
		<path style="fill:none;stroke:#000000;stroke-width:2;stroke-linecap:round;stroke-linejoin:round;stroke-miterlimit:10;" d="
			M21.251,16.236c24.938-1.332,49.554-2.125,74.519-1.881c4.754,0.044,8.603,3.884,8.647,8.638
			c0.086,7.763,0.368,41.65,0.583,63.539c0.044,4.754-3.727,8.681-8.481,8.812c-24.79,0.679-49.293-0.157-74.084,0.514"/>
		<path style="fill:#FFFFFF;" d="M5.095,36.681c0.134,16.787,0.268,33.574,0.402,50.361c0.039,4.883,4.081,8.774,8.962,8.642
			c24.784-0.668,49.29,0.169,74.077-0.513c4.755-0.131,8.53-4.05,8.483-8.807c-0.165-16.836-0.311-34.507-0.469-51.659
			C65.892,34.345,35.71,35.21,5.095,36.681z"/>
		<path style="fill:#0073AA;" d="M96.55,34.705c-0.037-3.994-0.074-7.961-0.112-11.883c-0.046-4.755-3.895-8.588-8.65-8.635
			c-24.963-0.246-49.58,0.552-74.515,1.882C8.611,16.318,4.963,20.181,5,24.85c0.031,3.944,0.063,7.887,0.094,11.831
			C35.71,35.21,65.892,34.345,96.55,34.705z"/>
		<path style="fill:none;stroke:#000000;stroke-width:2;stroke-linecap:round;stroke-linejoin:round;stroke-miterlimit:10;" d="
			M5.095,36.681c0.134,16.787,0.268,33.574,0.402,50.361c0.039,4.883,4.081,8.774,8.962,8.642
			c24.784-0.668,49.29,0.169,74.077-0.513c4.755-0.131,8.53-4.05,8.483-8.807c-0.165-16.836-0.311-34.507-0.469-51.659
			C65.892,34.345,35.71,35.21,5.095,36.681z"/>
		<path style="fill:none;stroke:#000000;stroke-width:2;stroke-linecap:round;stroke-linejoin:round;stroke-miterlimit:10;" d="
			M96.55,34.705c-0.037-3.994-0.074-7.961-0.112-11.883c-0.046-4.755-3.895-8.588-8.65-8.635
			c-24.963-0.246-49.58,0.552-74.515,1.882C8.611,16.318,4.963,20.181,5,24.85c0.031,3.944,0.063,7.887,0.094,11.831
			C35.71,35.21,65.892,34.345,96.55,34.705z"/>
		<path style="fill:#FFFFFF;" d="M12.022,28.027c0.562,1.192,1.814,2.028,3.131,2.09s2.641-0.653,3.313-1.788
			c0.547-0.924,0.656-2.097,0.284-3.104c-0.372-1.008-1.218-1.829-2.238-2.167C13.585,22.089,10.695,25.212,12.022,28.027z"/>
		<path style="fill:#FFFFFF;" d="M23.7,27.598c0.562,1.192,1.814,2.028,3.131,2.09s2.641-0.653,3.313-1.788
			c0.547-0.924,0.656-2.097,0.284-3.104c-0.372-1.008-1.218-1.829-2.238-2.167C25.262,21.661,22.372,24.784,23.7,27.598z"/>
		<path style="fill:#FFFFFF;" d="M35.377,27.17c0.562,1.192,1.814,2.028,3.131,2.09c1.317,0.062,2.641-0.653,3.313-1.788
			c0.547-0.924,0.656-2.097,0.284-3.104c-0.372-1.008-1.218-1.829-2.238-2.167C36.94,21.232,34.05,24.355,35.377,27.17z"/>
		<path style="fill:none;stroke:#000000;stroke-width:2;stroke-linecap:round;stroke-linejoin:round;stroke-miterlimit:10;" d="
			M12.022,28.027c0.562,1.192,1.814,2.028,3.131,2.09s2.641-0.653,3.313-1.788c0.547-0.924,0.656-2.097,0.284-3.104
			c-0.372-1.008-1.218-1.829-2.238-2.167C13.585,22.089,10.695,25.212,12.022,28.027z"/>
		<path style="fill:none;stroke:#000000;stroke-width:2;stroke-linecap:round;stroke-linejoin:round;stroke-miterlimit:10;" d="
			M23.7,27.598c0.562,1.192,1.814,2.028,3.131,2.09s2.641-0.653,3.313-1.788c0.547-0.924,0.656-2.097,0.284-3.104
			c-0.372-1.008-1.218-1.829-2.238-2.167C25.262,21.661,22.372,24.784,23.7,27.598z"/>
		<path style="fill:none;stroke:#000000;stroke-width:2;stroke-linecap:round;stroke-linejoin:round;stroke-miterlimit:10;" d="
			M35.377,27.17c0.562,1.192,1.814,2.028,3.131,2.09c1.317,0.062,2.641-0.653,3.313-1.788c0.547-0.924,0.656-2.097,0.284-3.104
			c-0.372-1.008-1.218-1.829-2.238-2.167C36.94,21.232,34.05,24.355,35.377,27.17z"/>
		<path style="fill:#0073AA;" d="M72.86,68.007c-0.076-2.434-0.305-4.869-0.372-7.313l-8.162-1.031c0,0,3.246-5.728,4.181-7.904
			c-1.785-1.671-3.666-3.227-5.451-4.907c-1.766,1.279-4.897,3.752-6.501,5.031c0,0-1.747-6.339-2.635-8.534
			c-2.434,0.076-4.878,0.305-7.313,0.382l-2.52,6.673c-2.186-0.936-4.239-1.766-6.425-2.692c-1.671,1.766-3.236,3.666-4.897,5.432
			c1.27,1.766,2.539,3.523,3.799,5.289c-0.582,0.143-5.327,3.064-7.313,3.866c0.067,2.434,0.305,4.869,0.382,7.313
			c2.157,0.344,8.153,1.031,8.153,1.031s-3.246,5.728-4.172,7.914c1.776,1.661,3.666,3.217,5.441,4.897
			c1.776-1.279,6.501-5.031,6.501-5.031s1.757,6.339,2.635,8.544c2.434-0.076,4.878-0.315,7.313-0.391
			c0.353-2.157,1.05-8.143,1.05-8.143s5.718,3.236,7.895,4.162c1.68-1.766,3.236-3.666,4.897-5.432
			c-1.279-1.785-5.021-6.52-5.021-6.52L72.86,68.007z M57.738,69.382c-1.547,2.415-4.487,3.866-7.351,3.628
			c-2.864-0.239-5.518-2.157-6.654-4.792C41.07,61.984,47.61,55.416,53.91,57.755c2.196,0.811,3.971,2.673,4.697,4.897
			C59.333,64.876,59.008,67.416,57.738,69.382z"/>
		<path style="fill:none;stroke:#000000;stroke-width:2;stroke-linecap:round;stroke-linejoin:round;stroke-miterlimit:10;" d="
			M64.329,70.647c0,0,3.742,4.733,5.022,6.513c-1.664,1.77-3.223,3.665-4.897,5.435c-2.184-0.924-7.898-4.166-7.898-4.166
			s-0.702,5.984-1.049,8.148c-2.434,0.077-4.877,0.308-7.311,0.385c-0.885-2.203-2.636-8.543-2.636-8.543s-4.733,3.752-6.503,5.031
			c-1.78-1.674-3.665-3.232-5.445-4.897c0.933-2.184,4.175-7.908,4.175-7.908s-5.993-0.693-8.158-1.039
			c-0.067-2.444-0.308-4.877-0.375-7.311c1.982-0.798,6.725-3.723,7.311-3.867c-1.26-1.761-2.53-3.521-3.8-5.281
			c1.664-1.77,3.223-3.665,4.897-5.435c2.184,0.924,4.242,1.761,6.426,2.694l2.52-6.676c2.434-0.077,4.877-0.308,7.311-0.385
			c0.885,2.203,2.636,8.543,2.636,8.543c1.607-1.279,4.733-3.752,6.503-5.031c1.78,1.674,3.665,3.232,5.445,4.906
			c-0.933,2.174-4.175,7.898-4.175,7.898l8.158,1.039c0.067,2.444,0.298,4.877,0.375,7.311L64.329,70.647z"/>
		<path style="fill:none;stroke:#000000;stroke-width:2;stroke-linecap:round;stroke-linejoin:round;stroke-miterlimit:10;" d="
			M43.738,68.214c1.129,2.641,3.788,4.56,6.65,4.799c2.862,0.239,5.803-1.211,7.354-3.628c1.264-1.969,1.595-4.513,0.865-6.736
			c-0.729-2.223-2.506-4.08-4.699-4.896C47.614,55.412,41.073,61.98,43.738,68.214z"/>
		
			<line style="fill:none;stroke:#000000;stroke-linecap:round;stroke-linejoin:round;stroke-miterlimit:10;" x1="94.069" y1="14.334" x2="92.667" y2="15.736"/>
		
			<line style="fill:none;stroke:#000000;stroke-linecap:round;stroke-linejoin:round;stroke-miterlimit:10;" x1="98.858" y1="14.944" x2="95.262" y2="18.54"/>
		
			<line style="fill:none;stroke:#000000;stroke-linecap:round;stroke-linejoin:round;stroke-miterlimit:10;" x1="102.072" y1="17.129" x2="96.438" y2="22.763"/>
		
			<line style="fill:none;stroke:#000000;stroke-linecap:round;stroke-linejoin:round;stroke-miterlimit:10;" x1="104.048" y1="20.551" x2="96.481" y2="28.118"/>
		
			<line style="fill:none;stroke:#000000;stroke-linecap:round;stroke-linejoin:round;stroke-miterlimit:10;" x1="104.44" y1="25.567" x2="96.542" y2="33.465"/>
		
			<line style="fill:none;stroke:#000000;stroke-linecap:round;stroke-linejoin:round;stroke-miterlimit:10;" x1="104.492" y1="30.905" x2="96.586" y2="38.811"/>
		
			<line style="fill:none;stroke:#000000;stroke-linecap:round;stroke-linejoin:round;stroke-miterlimit:10;" x1="104.536" y1="36.26" x2="96.638" y2="44.166"/>
		
			<line style="fill:none;stroke:#000000;stroke-linecap:round;stroke-linejoin:round;stroke-miterlimit:10;" x1="104.588" y1="41.615" x2="96.682" y2="49.512"/>
		
			<line style="fill:none;stroke:#000000;stroke-linecap:round;stroke-linejoin:round;stroke-miterlimit:10;" x1="104.64" y1="46.961" x2="96.734" y2="54.868"/>
		
			<line style="fill:none;stroke:#000000;stroke-linecap:round;stroke-linejoin:round;stroke-miterlimit:10;" x1="104.684" y1="52.316" x2="96.786" y2="60.214"/>
		<polyline style="fill:none;stroke:#000000;stroke-linecap:round;stroke-linejoin:round;stroke-miterlimit:10;" points="
			104.736,57.654 104.736,57.663 96.83,65.569 		"/>
		
			<line style="fill:none;stroke:#000000;stroke-linecap:round;stroke-linejoin:round;stroke-miterlimit:10;" x1="104.78" y1="63.009" x2="96.882" y2="70.916"/>
		
			<line style="fill:none;stroke:#000000;stroke-linecap:round;stroke-linejoin:round;stroke-miterlimit:10;" x1="104.832" y1="68.364" x2="96.925" y2="76.262"/>
		
			<line style="fill:none;stroke:#000000;stroke-linecap:round;stroke-linejoin:round;stroke-miterlimit:10;" x1="104.875" y1="73.719" x2="96.978" y2="81.617"/>
		
			<line style="fill:none;stroke:#000000;stroke-linecap:round;stroke-linejoin:round;stroke-miterlimit:10;" x1="88.836" y1="95.157" x2="88.81" y2="95.183"/>
		
			<line style="fill:none;stroke:#000000;stroke-linecap:round;stroke-linejoin:round;stroke-miterlimit:10;" x1="104.928" y1="79.066" x2="97.004" y2="86.99"/>
		
			<line style="fill:none;stroke:#000000;stroke-linecap:round;stroke-linejoin:round;stroke-miterlimit:10;" x1="104.98" y1="84.412" x2="94.104" y2="95.288"/>
		<polyline style="fill:none;stroke:#000000;stroke-linecap:round;stroke-linejoin:round;stroke-miterlimit:10;" points="
			103.83,90.96 100.591,94.2 100.583,94.208 		"/>
		<path style="fill:none;stroke:#000000;stroke-linecap:round;stroke-linejoin:round;stroke-miterlimit:10;" d="M12.078,60.661
			c-0.049,7.874-0.098,15.748-0.147,23.623c-0.008,1.253,0.001,2.572,0.622,3.66c0.717,1.255,2.148,1.97,3.579,2.176
			s2.885-0.025,4.312-0.255"/>
		<path style="fill:none;stroke:#000000;stroke-linecap:round;stroke-linejoin:round;stroke-miterlimit:10;" d="M65.557,19.964
			c5.195-0.616,10.437-0.841,15.666-0.674c1.297,0.041,2.624,0.114,3.82,0.615s2.256,1.519,2.455,2.801"/>
		<path style="fill:none;stroke:#000000;stroke-linecap:round;stroke-linejoin:round;stroke-miterlimit:10;" d="M90.785,42.688
			c-0.216,4.57,0.009,9.16,0.67,13.687"/>
		<path style="fill:none;stroke:#000000;stroke-linecap:round;stroke-linejoin:round;stroke-miterlimit:10;" d="M46.922,66.023
			c-0.313-0.904-0.206-1.945,0.286-2.767s1.358-1.408,2.303-1.559"/>
		<path style="fill:none;stroke:#000000;stroke-linecap:round;stroke-linejoin:round;stroke-miterlimit:10;" d="M88.213,51.83
			c0.404,4.498,0.807,8.995,1.211,13.493"/>
		<path style="fill:none;stroke:#000000;stroke-linecap:round;stroke-linejoin:round;stroke-miterlimit:10;" d="M89.603,68.79
			c0.03,0.487,0.061,0.973,0.091,1.46"/>
	</g>
</g>
<g id="Layer_1">
</g>
</svg>
