<?xml version="1.0" encoding="iso-8859-1"?>
<!-- Generator: Adobe Illustrator 23.0.5, SVG Export Plug-In . SVG Version: 6.00 Build 0)  -->
<svg version="1.1" xmlns="http://www.w3.org/2000/svg" xmlns:xlink="http://www.w3.org/1999/xlink" x="0px" y="0px"
	 viewBox="0 0 100 100" style="enable-background:new 0 0 100 100;" xml:space="preserve">
<g id="Composite">
	<g>
		<g>
			<path style="fill:#FFFFFF;" d="M94.944,70.729C79.963,77.306,64.998,87.153,50,93.747C35.002,87.153,20.054,77.306,5.056,70.729
				c14.981-7.558,29.946-15.1,44.927-22.658h0.034C64.998,55.629,79.98,63.171,94.944,70.729z"/>
			<path style="fill:none;stroke:#000000;stroke-width:2;stroke-linecap:round;stroke-linejoin:round;stroke-miterlimit:10;" d="
				M94.944,70.729C79.963,77.306,64.998,87.153,50,93.747C35.002,87.153,20.054,77.306,5.056,70.729
				c14.981-7.558,29.946-15.1,44.927-22.658h0.034C64.998,55.629,79.98,63.171,94.944,70.729z"/>
			<g>
				
					<line style="fill:none;stroke:#000000;stroke-linecap:round;stroke-linejoin:round;stroke-miterlimit:10;" x1="46.261" y1="49.946" x2="18.746" y2="77.461"/>
				
					<line style="fill:none;stroke:#000000;stroke-linecap:round;stroke-linejoin:round;stroke-miterlimit:10;" x1="51.294" y1="48.706" x2="21.209" y2="78.791"/>
				
					<line style="fill:none;stroke:#000000;stroke-linecap:round;stroke-linejoin:round;stroke-miterlimit:10;" x1="53.82" y1="49.991" x2="23.681" y2="80.131"/>
				
					<line style="fill:none;stroke:#000000;stroke-linecap:round;stroke-linejoin:round;stroke-miterlimit:10;" x1="56.346" y1="51.258" x2="26.135" y2="81.47"/>
				
					<line style="fill:none;stroke:#000000;stroke-linecap:round;stroke-linejoin:round;stroke-miterlimit:10;" x1="58.872" y1="52.535" x2="28.589" y2="82.818"/>
				
					<line style="fill:none;stroke:#000000;stroke-linecap:round;stroke-linejoin:round;stroke-miterlimit:10;" x1="61.398" y1="53.811" x2="31.052" y2="84.158"/>
				
					<line style="fill:none;stroke:#000000;stroke-linecap:round;stroke-linejoin:round;stroke-miterlimit:10;" x1="63.924" y1="55.079" x2="33.505" y2="85.497"/>
				
					<line style="fill:none;stroke:#000000;stroke-linecap:round;stroke-linejoin:round;stroke-miterlimit:10;" x1="66.459" y1="56.355" x2="35.986" y2="86.827"/>
				
					<line style="fill:none;stroke:#000000;stroke-linecap:round;stroke-linejoin:round;stroke-miterlimit:10;" x1="68.975" y1="57.632" x2="38.467" y2="88.14"/>
				
					<line style="fill:none;stroke:#000000;stroke-linecap:round;stroke-linejoin:round;stroke-miterlimit:10;" x1="71.51" y1="58.908" x2="40.975" y2="89.434"/>
				
					<line style="fill:none;stroke:#000000;stroke-linecap:round;stroke-linejoin:round;stroke-miterlimit:10;" x1="74.027" y1="60.184" x2="43.51" y2="90.702"/>
				
					<line style="fill:none;stroke:#000000;stroke-linecap:round;stroke-linejoin:round;stroke-miterlimit:10;" x1="76.553" y1="61.452" x2="46.063" y2="91.951"/>
				
					<line style="fill:none;stroke:#000000;stroke-linecap:round;stroke-linejoin:round;stroke-miterlimit:10;" x1="79.088" y1="62.728" x2="48.67" y2="93.146"/>
				
					<line style="fill:none;stroke:#000000;stroke-linecap:round;stroke-linejoin:round;stroke-miterlimit:10;" x1="81.605" y1="64.005" x2="53.425" y2="92.185"/>
				
					<line style="fill:none;stroke:#000000;stroke-linecap:round;stroke-linejoin:round;stroke-miterlimit:10;" x1="84.14" y1="65.281" x2="61.002" y2="88.418"/>
				
					<line style="fill:none;stroke:#000000;stroke-linecap:round;stroke-linejoin:round;stroke-miterlimit:10;" x1="86.666" y1="66.548" x2="69.164" y2="84.05"/>
				
					<line style="fill:none;stroke:#000000;stroke-linecap:round;stroke-linejoin:round;stroke-miterlimit:10;" x1="89.191" y1="67.825" x2="77.551" y2="79.465"/>
				
					<line style="fill:none;stroke:#000000;stroke-linecap:round;stroke-linejoin:round;stroke-miterlimit:10;" x1="91.717" y1="69.101" x2="85.65" y2="75.169"/>
				
					<line style="fill:none;stroke:#000000;stroke-linecap:round;stroke-linejoin:round;stroke-miterlimit:10;" x1="94.243" y1="70.369" x2="93.021" y2="71.591"/>
				
					<line style="fill:none;stroke:#000000;stroke-linecap:round;stroke-linejoin:round;stroke-miterlimit:10;" x1="7.923" y1="69.281" x2="6.036" y2="71.169"/>
				
					<line style="fill:none;stroke:#000000;stroke-linecap:round;stroke-linejoin:round;stroke-miterlimit:10;" x1="15.573" y1="65.425" x2="8.633" y2="72.364"/>
				
					<line style="fill:none;stroke:#000000;stroke-linecap:round;stroke-linejoin:round;stroke-miterlimit:10;" x1="23.249" y1="61.56" x2="11.204" y2="73.596"/>
				
					<line style="fill:none;stroke:#000000;stroke-linecap:round;stroke-linejoin:round;stroke-miterlimit:10;" x1="30.908" y1="57.694" x2="13.739" y2="74.863"/>
				<polyline style="fill:none;stroke:#000000;stroke-linecap:round;stroke-linejoin:round;stroke-miterlimit:10;" points="
					38.575,53.82 38.566,53.829 16.247,76.158 				"/>
			</g>
			<path style="fill:#0073AA;" d="M94.944,46.041C79.963,52.619,64.998,62.465,50,69.059C35.002,62.465,20.054,52.619,5.056,46.041
				c14.981-7.558,29.946-15.1,44.927-22.658h0.034C64.998,30.941,79.98,38.483,94.944,46.041z"/>
			<path style="fill:#FFFFFF;" d="M5.056,53.599C20.054,60.176,35.002,70.023,50,76.617c14.998-6.595,29.963-16.441,44.944-23.018
				v-7.558C79.963,52.619,64.998,62.465,50,69.059C35.002,62.465,20.054,52.619,5.056,46.041V53.599z"/>
			<path style="fill:none;stroke:#000000;stroke-width:2;stroke-linecap:round;stroke-linejoin:round;stroke-miterlimit:10;" d="
				M94.944,46.041C79.963,52.619,64.998,62.465,50,69.059C35.002,62.465,20.054,52.619,5.056,46.041
				c14.981-7.558,29.946-15.1,44.927-22.658h0.034C64.998,30.941,79.98,38.483,94.944,46.041z"/>
			<path style="fill:none;stroke:#000000;stroke-width:2;stroke-linecap:round;stroke-linejoin:round;stroke-miterlimit:10;" d="
				M5.056,53.599C20.054,60.176,35.002,70.023,50,76.617c14.998-6.595,29.963-16.441,44.944-23.018v-7.558
				C79.963,52.619,64.998,62.465,50,69.059C35.002,62.465,20.054,52.619,5.056,46.041V53.599z"/>
			<path style="fill:#FFFFFF;" d="M94.944,28.911C79.963,35.488,64.998,45.335,50,51.929C35.002,45.335,20.054,35.488,5.056,28.911
				c14.981-7.558,29.946-15.1,44.927-22.658h0.034C64.998,13.811,79.98,21.352,94.944,28.911z"/>
			<path style="fill:none;stroke:#000000;stroke-width:2;stroke-linecap:round;stroke-linejoin:round;stroke-miterlimit:10;" d="
				M94.944,28.911C79.963,35.488,64.998,45.335,50,51.929C35.002,45.335,20.054,35.488,5.056,28.911
				c14.981-7.558,29.946-15.1,44.927-22.658h0.034C64.998,13.811,79.98,21.352,94.944,28.911z"/>
		</g>
		<g>
			<path style="fill:none;stroke:#000000;stroke-linecap:round;stroke-linejoin:round;stroke-miterlimit:10;" d="M49.98,14.9
				c-3.746,1.696-7.328,3.754-10.681,6.135"/>
			<path style="fill:none;stroke:#000000;stroke-linecap:round;stroke-linejoin:round;stroke-miterlimit:10;" d="M41.611,16.58
				c-3.435,2.163-6.87,4.326-10.305,6.489"/>
			<path style="fill:none;stroke:#000000;stroke-linecap:round;stroke-linejoin:round;stroke-miterlimit:10;" d="M28.604,24.631
				c-0.377,0.223-0.754,0.447-1.131,0.67"/>
		</g>
		<path style="fill:none;stroke:#000000;stroke-linecap:round;stroke-linejoin:round;stroke-miterlimit:10;" d="M55.538,62.344
			c5.449-2.913,10.899-5.827,16.348-8.74"/>
		<path style="fill:none;stroke:#000000;stroke-linecap:round;stroke-linejoin:round;stroke-miterlimit:10;" d="M73.706,52.679
			c0.579-0.381,1.157-0.761,1.736-1.142"/>
		<path style="fill:none;stroke:#000000;stroke-linecap:round;stroke-linejoin:round;stroke-miterlimit:10;" d="M63.273,54.892
			c4.905-2.768,9.811-5.535,14.716-8.303"/>
	</g>
</g>
<g id="Layer_1">
</g>
</svg>
