<?xml version="1.0" encoding="iso-8859-1"?>
<!-- Generator: Adobe Illustrator 23.0.5, SVG Export Plug-In . SVG Version: 6.00 Build 0)  -->
<svg version="1.1" xmlns="http://www.w3.org/2000/svg" xmlns:xlink="http://www.w3.org/1999/xlink" x="0px" y="0px"
	 viewBox="0 0 100 100" style="enable-background:new 0 0 100 100;" xml:space="preserve">
<g id="Facade">
	<g>
		<path style="fill:#FFFFFF;" d="M14.92,33.218c8.163-9.742,17.822-17.24,27.464-25.372c4.392-3.704,10.804-3.723,15.217-0.045
			c9.734,8.113,19.715,15.638,27.912,25.417"/>
		<path style="fill:#FFFFFF;" d="M53.474,77.721c-0.155-8.384-0.311-18.237-0.466-26.622h-6.585
			c0.155,8.384,0.311,18.237,0.466,26.622H53.474z"/>
		<path style="fill:#0073AA;" d="M43.125,84.906l-0.03-3.43c-0.016-1.784,1.34-3.282,3.117-3.436
			c2.949-0.255,4.22-0.398,7.182-0.363c1.882,0.022,3.391,1.577,3.363,3.46c-0.018,1.189-0.037,2.378-0.002,3.542"/>
		<path style="fill:#0073AA;" d="M56.727,43.865l0.03,3.43c0.016,1.784-1.34,3.282-3.117,3.436c-2.949,0.255-4.22,0.398-7.182,0.363
			c-1.882-0.022-3.391-1.577-3.363-3.46c0.018-1.189,0.037-2.378,0.002-3.542"/>
		<path style="fill:#FFFFFF;" d="M30.84,77.721c-0.155-8.384-0.311-18.237-0.466-26.622h-6.585
			c0.155,8.384,0.311,18.237,0.466,26.622H30.84z"/>
		<path style="fill:#0073AA;" d="M20.49,84.906l-0.03-3.43c-0.016-1.784,1.34-3.282,3.117-3.436c2.949-0.255,4.22-0.398,7.182-0.363
			c1.882,0.022,3.391,1.577,3.363,3.46c-0.018,1.189-0.037,2.378-0.002,3.542"/>
		<path style="fill:#0073AA;" d="M34.092,43.865l0.03,3.43c0.016,1.784-1.34,3.282-3.117,3.436c-2.949,0.255-4.22,0.398-7.182,0.363
			c-1.882-0.022-3.391-1.577-3.363-3.46c0.018-1.189,0.037-2.378,0.002-3.542"/>
		<path style="fill:#FFFFFF;" d="M76.109,77.721c-0.155-8.384-0.311-18.237-0.466-26.622h-6.585
			c0.155,8.384,0.311,18.237,0.466,26.622H76.109z"/>
		<path style="fill:#0073AA;" d="M65.76,84.906l-0.03-3.43c-0.016-1.784,1.34-3.282,3.117-3.436c2.949-0.255,4.22-0.398,7.182-0.363
			c1.882,0.022,3.391,1.577,3.363,3.46c-0.018,1.189-0.037,2.378-0.002,3.542"/>
		<path style="fill:#0073AA;" d="M79.361,43.865l0.03,3.43c0.016,1.784-1.34,3.282-3.117,3.436c-2.949,0.255-4.22,0.398-7.182,0.363
			c-1.882-0.022-3.391-1.577-3.363-3.46c0.018-1.189,0.037-2.378,0.002-3.542"/>
		<path style="fill:#FFFFFF;" d="M14.82,94.944c-0.075-0.884-0.15-2.215-0.225-3.644c-0.174-3.314,2.424-6.11,5.741-6.201
			c5.154-0.141,10.227-0.38,15.487-0.396c14.447-0.046,28.895-0.092,43.34-0.308c3.251-0.049,5.927,2.535,5.983,5.785
			c0.03,1.738,0.062,3.412,0.118,4.535L14.82,94.944z"/>
		<path style="fill:#FFFFFF;" d="M14.737,38.255c-0.083-1.611-0.167-3.148-0.25-4.133c7.314-0.023,14.266-0.475,21.58-0.498
			c16.395-0.052,32.79-0.104,49.182-0.406c0.055,1.102,0.087,2.736,0.116,4.439c0.057,3.288-2.588,5.987-5.876,5.998l-58.845,0.192
			C17.498,43.857,14.899,41.396,14.737,38.255z"/>
		<path style="fill:#0073AA;" d="M43.944,19.561c-0.319,1.604-0.003,3.327,0.867,4.712c1.045,1.666,2.888,2.808,4.846,2.992
			c2.756,0.258,5.578-1.498,6.564-4.084c0.986-2.586,0.048-5.776-2.181-7.417C50.383,13.071,44.833,15.098,43.944,19.561z"/>
		<path style="fill:none;stroke:#000000;stroke-width:2;stroke-linecap:round;stroke-linejoin:round;stroke-miterlimit:10;" d="
			M14.92,33.218c8.163-9.742,17.822-17.24,27.464-25.372c4.392-3.704,10.804-3.723,15.217-0.045
			c9.734,8.113,19.715,15.638,27.912,25.417"/>
		<path style="fill:none;stroke:#000000;stroke-width:2;stroke-linecap:round;stroke-linejoin:round;stroke-miterlimit:10;" d="
			M53.474,77.721c-0.155-8.384-0.311-18.237-0.466-26.622h-6.585c0.155,8.384,0.311,18.237,0.466,26.622H53.474z"/>
		<path style="fill:none;stroke:#000000;stroke-width:2;stroke-linecap:round;stroke-linejoin:round;stroke-miterlimit:10;" d="
			M43.125,84.906l-0.03-3.43c-0.016-1.784,1.34-3.282,3.117-3.436c2.949-0.255,4.22-0.398,7.182-0.363
			c1.882,0.022,3.391,1.577,3.363,3.46c-0.018,1.189-0.037,2.378-0.002,3.542"/>
		<path style="fill:none;stroke:#000000;stroke-width:2;stroke-linecap:round;stroke-linejoin:round;stroke-miterlimit:10;" d="
			M56.727,43.865l0.03,3.43c0.016,1.784-1.34,3.282-3.117,3.436c-2.949,0.255-4.22,0.398-7.182,0.363
			c-1.882-0.022-3.391-1.577-3.363-3.46c0.018-1.189,0.037-2.378,0.002-3.542"/>
		<path style="fill:none;stroke:#000000;stroke-width:2;stroke-linecap:round;stroke-linejoin:round;stroke-miterlimit:10;" d="
			M30.84,77.721c-0.155-8.384-0.311-18.237-0.466-26.622h-6.585c0.155,8.384,0.311,18.237,0.466,26.622H30.84z"/>
		<path style="fill:none;stroke:#000000;stroke-width:2;stroke-linecap:round;stroke-linejoin:round;stroke-miterlimit:10;" d="
			M20.49,84.906l-0.03-3.43c-0.016-1.784,1.34-3.282,3.117-3.436c2.949-0.255,4.22-0.398,7.182-0.363
			c1.882,0.022,3.391,1.577,3.363,3.46c-0.018,1.189-0.037,2.378-0.002,3.542"/>
		<path style="fill:none;stroke:#000000;stroke-width:2;stroke-linecap:round;stroke-linejoin:round;stroke-miterlimit:10;" d="
			M34.092,43.865l0.03,3.43c0.016,1.784-1.34,3.282-3.117,3.436c-2.949,0.255-4.22,0.398-7.182,0.363
			c-1.882-0.022-3.391-1.577-3.363-3.46c0.018-1.189,0.037-2.378,0.002-3.542"/>
		<path style="fill:none;stroke:#000000;stroke-width:2;stroke-linecap:round;stroke-linejoin:round;stroke-miterlimit:10;" d="
			M76.109,77.721c-0.155-8.384-0.311-18.237-0.466-26.622h-6.585c0.155,8.384,0.311,18.237,0.466,26.622H76.109z"/>
		<path style="fill:none;stroke:#000000;stroke-width:2;stroke-linecap:round;stroke-linejoin:round;stroke-miterlimit:10;" d="
			M65.76,84.906l-0.03-3.43c-0.016-1.784,1.34-3.282,3.117-3.436c2.949-0.255,4.22-0.398,7.182-0.363
			c1.882,0.022,3.391,1.577,3.363,3.46c-0.018,1.189-0.037,2.378-0.002,3.542"/>
		<path style="fill:none;stroke:#000000;stroke-width:2;stroke-linecap:round;stroke-linejoin:round;stroke-miterlimit:10;" d="
			M79.361,43.865l0.03,3.43c0.016,1.784-1.34,3.282-3.117,3.436c-2.949,0.255-4.22,0.398-7.182,0.363
			c-1.882-0.022-3.391-1.577-3.363-3.46c0.018-1.189,0.037-2.378,0.002-3.542"/>
		<path style="fill:none;stroke:#000000;stroke-width:2;stroke-linecap:round;stroke-linejoin:round;stroke-miterlimit:10;" d="
			M14.82,94.944c-0.075-0.884-0.15-2.215-0.225-3.644c-0.174-3.314,2.424-6.11,5.741-6.201c5.154-0.141,10.227-0.38,15.487-0.396
			c14.447-0.046,28.895-0.092,43.34-0.308c3.251-0.049,5.927,2.535,5.983,5.785c0.03,1.738,0.062,3.412,0.118,4.535L14.82,94.944z"
			/>
		<path style="fill:none;stroke:#000000;stroke-width:2;stroke-linecap:round;stroke-linejoin:round;stroke-miterlimit:10;" d="
			M14.737,38.255c-0.083-1.611-0.167-3.148-0.25-4.133c7.314-0.023,14.266-0.475,21.58-0.498c16.395-0.052,32.79-0.104,49.182-0.406
			c0.055,1.102,0.087,2.736,0.116,4.439c0.057,3.288-2.588,5.987-5.876,5.998l-58.845,0.192
			C17.498,43.857,14.899,41.396,14.737,38.255z"/>
		<path style="fill:none;stroke:#000000;stroke-width:2;stroke-linecap:round;stroke-linejoin:round;stroke-miterlimit:10;" d="
			M43.944,19.561c-0.319,1.604-0.003,3.327,0.867,4.712c1.045,1.666,2.888,2.808,4.846,2.992c2.756,0.258,5.578-1.498,6.564-4.084
			c0.986-2.586,0.048-5.776-2.181-7.417C50.383,13.071,44.833,15.098,43.944,19.561z"/>
		<g>
			
				<line style="fill:none;stroke:#000000;stroke-linecap:round;stroke-linejoin:round;stroke-miterlimit:10;" x1="30.027" y1="33.73" x2="19.941" y2="43.807"/>
			
				<line style="fill:none;stroke:#000000;stroke-linecap:round;stroke-linejoin:round;stroke-miterlimit:10;" x1="33.91" y1="33.64" x2="23.717" y2="43.843"/>
			
				<line style="fill:none;stroke:#000000;stroke-linecap:round;stroke-linejoin:round;stroke-miterlimit:10;" x1="37.739" y1="33.613" x2="27.528" y2="43.825"/>
			
				<line style="fill:none;stroke:#000000;stroke-linecap:round;stroke-linejoin:round;stroke-miterlimit:10;" x1="41.55" y1="33.604" x2="31.339" y2="43.816"/>
			
				<line style="fill:none;stroke:#000000;stroke-linecap:round;stroke-linejoin:round;stroke-miterlimit:10;" x1="45.371" y1="33.586" x2="35.15" y2="43.807"/>
			
				<line style="fill:none;stroke:#000000;stroke-linecap:round;stroke-linejoin:round;stroke-miterlimit:10;" x1="49.182" y1="33.577" x2="38.971" y2="43.789"/>
			
				<line style="fill:none;stroke:#000000;stroke-linecap:round;stroke-linejoin:round;stroke-miterlimit:10;" x1="53.002" y1="33.559" x2="42.782" y2="43.78"/>
			<polyline style="fill:none;stroke:#000000;stroke-linecap:round;stroke-linejoin:round;stroke-miterlimit:10;" points="
				56.823,33.532 56.823,33.541 46.593,43.762 			"/>
			
				<line style="fill:none;stroke:#000000;stroke-linecap:round;stroke-linejoin:round;stroke-miterlimit:10;" x1="60.643" y1="33.514" x2="50.404" y2="43.753"/>
			
				<line style="fill:none;stroke:#000000;stroke-linecap:round;stroke-linejoin:round;stroke-miterlimit:10;" x1="64.472" y1="33.487" x2="54.225" y2="43.735"/>
			
				<line style="fill:none;stroke:#000000;stroke-linecap:round;stroke-linejoin:round;stroke-miterlimit:10;" x1="68.31" y1="33.452" x2="58.036" y2="43.726"/>
			
				<line style="fill:none;stroke:#000000;stroke-linecap:round;stroke-linejoin:round;stroke-miterlimit:10;" x1="72.149" y1="33.416" x2="61.847" y2="43.717"/>
			
				<line style="fill:none;stroke:#000000;stroke-linecap:round;stroke-linejoin:round;stroke-miterlimit:10;" x1="76.005" y1="33.362" x2="65.659" y2="43.699"/>
			
				<line style="fill:none;stroke:#000000;stroke-linecap:round;stroke-linejoin:round;stroke-miterlimit:10;" x1="79.861" y1="33.308" x2="69.479" y2="43.69"/>
			
				<line style="fill:none;stroke:#000000;stroke-linecap:round;stroke-linejoin:round;stroke-miterlimit:10;" x1="83.717" y1="33.245" x2="73.29" y2="43.672"/>
			
				<line style="fill:none;stroke:#000000;stroke-linecap:round;stroke-linejoin:round;stroke-miterlimit:10;" x1="85.317" y1="35.447" x2="77.101" y2="43.663"/>
			
				<line style="fill:none;stroke:#000000;stroke-linecap:round;stroke-linejoin:round;stroke-miterlimit:10;" x1="85.119" y1="39.447" x2="81.164" y2="43.402"/>
			<polyline style="fill:none;stroke:#000000;stroke-linecap:round;stroke-linejoin:round;stroke-miterlimit:10;" points="
				18.278,34.072 14.71,37.64 14.71,37.649 			"/>
			
				<line style="fill:none;stroke:#000000;stroke-linecap:round;stroke-linejoin:round;stroke-miterlimit:10;" x1="22.18" y1="33.973" x2="15.429" y2="40.724"/>
			
				<line style="fill:none;stroke:#000000;stroke-linecap:round;stroke-linejoin:round;stroke-miterlimit:10;" x1="26.108" y1="33.847" x2="17.209" y2="42.746"/>
		</g>
		<g>
			
				<line style="fill:none;stroke:#000000;stroke-linecap:round;stroke-linejoin:round;stroke-miterlimit:10;" x1="30.099" y1="84.796" x2="19.959" y2="94.926"/>
			
				<line style="fill:none;stroke:#000000;stroke-linecap:round;stroke-linejoin:round;stroke-miterlimit:10;" x1="33.964" y1="84.724" x2="23.771" y2="94.917"/>
			
				<line style="fill:none;stroke:#000000;stroke-linecap:round;stroke-linejoin:round;stroke-miterlimit:10;" x1="37.793" y1="84.697" x2="27.591" y2="94.899"/>
			
				<line style="fill:none;stroke:#000000;stroke-linecap:round;stroke-linejoin:round;stroke-miterlimit:10;" x1="41.604" y1="84.688" x2="31.402" y2="94.89"/>
			
				<line style="fill:none;stroke:#000000;stroke-linecap:round;stroke-linejoin:round;stroke-miterlimit:10;" x1="45.425" y1="84.67" x2="35.222" y2="94.872"/>
			
				<line style="fill:none;stroke:#000000;stroke-linecap:round;stroke-linejoin:round;stroke-miterlimit:10;" x1="49.236" y1="84.661" x2="39.034" y2="94.863"/>
			
				<line style="fill:none;stroke:#000000;stroke-linecap:round;stroke-linejoin:round;stroke-miterlimit:10;" x1="53.056" y1="84.634" x2="42.845" y2="94.854"/>
			
				<line style="fill:none;stroke:#000000;stroke-linecap:round;stroke-linejoin:round;stroke-miterlimit:10;" x1="56.876" y1="84.616" x2="46.656" y2="94.836"/>
			
				<line style="fill:none;stroke:#000000;stroke-linecap:round;stroke-linejoin:round;stroke-miterlimit:10;" x1="60.706" y1="84.589" x2="50.467" y2="94.827"/>
			
				<line style="fill:none;stroke:#000000;stroke-linecap:round;stroke-linejoin:round;stroke-miterlimit:10;" x1="64.544" y1="84.553" x2="54.288" y2="94.809"/>
			
				<line style="fill:none;stroke:#000000;stroke-linecap:round;stroke-linejoin:round;stroke-miterlimit:10;" x1="68.373" y1="84.526" x2="58.099" y2="94.8"/>
			
				<line style="fill:none;stroke:#000000;stroke-linecap:round;stroke-linejoin:round;stroke-miterlimit:10;" x1="72.22" y1="84.481" x2="61.91" y2="94.791"/>
			
				<line style="fill:none;stroke:#000000;stroke-linecap:round;stroke-linejoin:round;stroke-miterlimit:10;" x1="76.068" y1="84.427" x2="65.721" y2="94.773"/>
			
				<line style="fill:none;stroke:#000000;stroke-linecap:round;stroke-linejoin:round;stroke-miterlimit:10;" x1="79.87" y1="84.427" x2="69.533" y2="94.764"/>
			
				<line style="fill:none;stroke:#000000;stroke-linecap:round;stroke-linejoin:round;stroke-miterlimit:10;" x1="82.639" y1="85.461" x2="73.353" y2="94.746"/>
			
				<line style="fill:none;stroke:#000000;stroke-linecap:round;stroke-linejoin:round;stroke-miterlimit:10;" x1="84.427" y1="87.475" x2="77.164" y2="94.738"/>
			
				<line style="fill:none;stroke:#000000;stroke-linecap:round;stroke-linejoin:round;stroke-miterlimit:10;" x1="85.155" y1="90.549" x2="80.976" y2="94.729"/>
			<polyline style="fill:none;stroke:#000000;stroke-linecap:round;stroke-linejoin:round;stroke-miterlimit:10;" points="
				85.245,94.261 85.245,94.27 84.796,94.711 			"/>
			
				<line style="fill:none;stroke:#000000;stroke-linecap:round;stroke-linejoin:round;stroke-miterlimit:10;" x1="17.667" y1="85.821" x2="15.312" y2="88.176"/>
			
				<line style="fill:none;stroke:#000000;stroke-linecap:round;stroke-linejoin:round;stroke-miterlimit:10;" x1="22.242" y1="85.048" x2="14.674" y2="92.616"/>
			
				<line style="fill:none;stroke:#000000;stroke-linecap:round;stroke-linejoin:round;stroke-miterlimit:10;" x1="26.18" y1="84.913" x2="16.148" y2="94.944"/>
		</g>
		<g>
			<path style="fill:none;stroke:#000000;stroke-linecap:round;stroke-linejoin:round;stroke-miterlimit:10;" d="M24.407,28.836
				c4.108,0.194,8.234-0.008,12.303-0.602"/>
			<path style="fill:none;stroke:#000000;stroke-linecap:round;stroke-linejoin:round;stroke-miterlimit:10;" d="M32.624,31.148
				c4.043-0.363,8.086-0.726,12.129-1.089"/>
			<path style="fill:none;stroke:#000000;stroke-linecap:round;stroke-linejoin:round;stroke-miterlimit:10;" d="M47.87,29.898
				c0.437-0.027,0.875-0.055,1.312-0.082"/>
		</g>
		<path style="fill:none;stroke:#000000;stroke-linecap:round;stroke-linejoin:round;stroke-miterlimit:10;" d="M49.279,17.396
			c0.793-0.236,1.69,0.009,2.31,0.557s0.966,1.368,1.013,2.194s-0.191,1.652-0.594,2.374"/>
		<path style="fill:none;stroke:#000000;stroke-linecap:round;stroke-linejoin:round;stroke-miterlimit:10;" d="M49.026,8.949
			c1.155-0.57,2.537-0.14,3.721,0.366c3.464,1.482,6.661,3.586,9.393,6.18c0.724,0.688,1.416,1.409,2.107,2.13"/>
		<path style="fill:none;stroke:#000000;stroke-linecap:round;stroke-linejoin:round;stroke-miterlimit:10;" d="M26.365,64.872
			c0.281,2.959,0.561,5.919,0.842,8.878"/>
		<path style="fill:none;stroke:#000000;stroke-linecap:round;stroke-linejoin:round;stroke-miterlimit:10;" d="M49.137,56.966
			c0.023,2.763,0.046,5.527,0.068,8.29"/>
		<path style="fill:none;stroke:#000000;stroke-linecap:round;stroke-linejoin:round;stroke-miterlimit:10;" d="M72.014,65.063
			c0.096,2.339,0.192,4.679,0.288,7.018"/>
	</g>
</g>
<g id="Layer_1">
</g>
</svg>
