<?xml version="1.0" encoding="iso-8859-1"?>
<!-- Generator: Adobe Illustrator 23.0.5, SVG Export Plug-In . SVG Version: 6.00 Build 0)  -->
<svg version="1.1" xmlns="http://www.w3.org/2000/svg" xmlns:xlink="http://www.w3.org/1999/xlink" x="0px" y="0px"
	 viewBox="0 0 100 100" style="enable-background:new 0 0 100 100;" xml:space="preserve">
<g id="Observer">
	<g>
		<g>
			<path style="fill:#FFFFFF;" d="M43.509,55.735c-5.88,11.53-12.559,22.652-19.974,33.26c-1.152,1.648-2.351,3.314-3.975,4.5
				c-1.624,1.186-3.771,1.833-5.681,1.206c-3.019-0.989-4.305-4.814-3.562-7.902c0.744-3.089,2.948-5.585,5.089-7.933
				c8.304-9.111,16.766-18.078,25.383-26.894L43.509,55.735z"/>
			<path style="fill:none;stroke:#000000;stroke-width:2;stroke-linecap:round;stroke-linejoin:round;stroke-miterlimit:10;" d="
				M43.509,55.735c-5.88,11.53-12.559,22.652-19.974,33.26c-1.152,1.648-2.351,3.314-3.975,4.5
				c-1.624,1.186-3.771,1.833-5.681,1.206c-3.019-0.989-4.305-4.814-3.562-7.902c0.744-3.089,2.948-5.585,5.089-7.933
				c8.304-9.111,16.766-18.078,25.383-26.894"/>
			<g>
				
					<line style="fill:none;stroke:#000000;stroke-linecap:round;stroke-linejoin:round;stroke-miterlimit:10;" x1="43.384" y1="55.987" x2="36.903" y2="55.987"/>
				
					<line style="fill:none;stroke:#000000;stroke-linecap:round;stroke-linejoin:round;stroke-miterlimit:10;" x1="41.982" y1="58.674" x2="34.296" y2="58.674"/>
				
					<line style="fill:none;stroke:#000000;stroke-linecap:round;stroke-linejoin:round;stroke-miterlimit:10;" x1="40.562" y1="61.362" x2="31.735" y2="61.362"/>
				
					<line style="fill:none;stroke:#000000;stroke-linecap:round;stroke-linejoin:round;stroke-miterlimit:10;" x1="39.097" y1="64.05" x2="29.173" y2="64.05"/>
				
					<line style="fill:none;stroke:#000000;stroke-linecap:round;stroke-linejoin:round;stroke-miterlimit:10;" x1="37.586" y1="66.737" x2="26.638" y2="66.737"/>
				
					<line style="fill:none;stroke:#000000;stroke-linecap:round;stroke-linejoin:round;stroke-miterlimit:10;" x1="36.04" y1="69.425" x2="24.121" y2="69.425"/>
				
					<line style="fill:none;stroke:#000000;stroke-linecap:round;stroke-linejoin:round;stroke-miterlimit:10;" x1="34.458" y1="72.113" x2="21.604" y2="72.113"/>
				
					<line style="fill:none;stroke:#000000;stroke-linecap:round;stroke-linejoin:round;stroke-miterlimit:10;" x1="32.822" y1="74.8" x2="19.141" y2="74.8"/>
				
					<line style="fill:none;stroke:#000000;stroke-linecap:round;stroke-linejoin:round;stroke-miterlimit:10;" x1="31.159" y1="77.488" x2="16.669" y2="77.488"/>
				
					<line style="fill:none;stroke:#000000;stroke-linecap:round;stroke-linejoin:round;stroke-miterlimit:10;" x1="29.451" y1="80.176" x2="14.233" y2="80.176"/>
				
					<line style="fill:none;stroke:#000000;stroke-linecap:round;stroke-linejoin:round;stroke-miterlimit:10;" x1="27.69" y1="82.863" x2="12.121" y2="82.863"/>
				
					<line style="fill:none;stroke:#000000;stroke-linecap:round;stroke-linejoin:round;stroke-miterlimit:10;" x1="25.901" y1="85.551" x2="10.701" y2="85.551"/>
				
					<line style="fill:none;stroke:#000000;stroke-linecap:round;stroke-linejoin:round;stroke-miterlimit:10;" x1="24.058" y1="88.239" x2="10.116" y2="88.239"/>
				
					<line style="fill:none;stroke:#000000;stroke-linecap:round;stroke-linejoin:round;stroke-miterlimit:10;" x1="22.126" y1="90.926" x2="10.467" y2="90.926"/>
				
					<line style="fill:none;stroke:#000000;stroke-linecap:round;stroke-linejoin:round;stroke-miterlimit:10;" x1="19.393" y1="93.614" x2="12.085" y2="93.614"/>
				
					<line style="fill:none;stroke:#000000;stroke-linecap:round;stroke-linejoin:round;stroke-miterlimit:10;" x1="41.748" y1="53.299" x2="39.501" y2="53.299"/>
			</g>
			<path style="fill:#FFFFFF;" d="M37.803,53.606c4.157,4.909,9.964,8.396,16.25,9.761s13.014,0.602,18.837-2.133
				c9.648-4.532,16.43-14.631,16.965-25.278s-5.203-21.378-14.357-26.84S54.169,3.706,45.064,9.249
				c-11.145,6.785-16.698,21.055-13.048,33.544C33.171,46.745,35.141,50.462,37.803,53.606z"/>
			<path style="fill:#0073AA;" d="M42.789,49.399c3.239,3.826,7.765,6.543,12.664,7.606c4.899,1.064,10.142,0.469,14.68-1.662
				c7.519-3.531,12.804-11.402,13.221-19.699s-4.055-16.66-11.189-20.916c-7.134-4.256-16.622-4.217-23.717,0.103
				c-8.686,5.288-13.013,16.408-10.168,26.141C39.179,44.052,40.714,46.949,42.789,49.399z"/>
			<path style="fill:none;stroke:#000000;stroke-width:2;stroke-linecap:round;stroke-linejoin:round;stroke-miterlimit:10;" d="
				M37.803,53.606c4.157,4.909,9.964,8.396,16.25,9.761s13.014,0.602,18.837-2.133c9.648-4.532,16.43-14.631,16.965-25.278
				s-5.203-21.378-14.357-26.84S54.169,3.706,45.064,9.249c-11.145,6.785-16.698,21.055-13.048,33.544
				C33.171,46.745,35.141,50.462,37.803,53.606z"/>
			<path style="fill:none;stroke:#000000;stroke-width:2;stroke-linecap:round;stroke-linejoin:round;stroke-miterlimit:10;" d="
				M42.789,49.399c3.239,3.826,7.765,6.543,12.664,7.606c4.899,1.064,10.142,0.469,14.68-1.662
				c7.519-3.531,12.804-11.402,13.221-19.699s-4.055-16.66-11.189-20.916c-7.134-4.256-16.622-4.217-23.717,0.103
				c-8.686,5.288-13.013,16.408-10.168,26.141C39.179,44.052,40.714,46.949,42.789,49.399z"/>
		</g>
		<path style="fill:none;stroke:#000000;stroke-linecap:round;stroke-linejoin:round;stroke-miterlimit:10;" d="M43.757,38
			c-1.546-7.071,1.606-14.935,7.607-18.981s14.473-4.019,20.448,0.065"/>
		<path style="fill:none;stroke:#000000;stroke-linecap:round;stroke-linejoin:round;stroke-miterlimit:10;" d="M48.379,31.928
			c0.342-4.222,2.871-8.208,6.545-10.316c3.674-2.108,8.391-2.281,12.209-0.446"/>
		<path style="fill:none;stroke:#000000;stroke-linecap:round;stroke-linejoin:round;stroke-miterlimit:10;" d="M78.071,33.656
			c0.605,2.9-0.263,5.952-1.769,8.504s-3.61,4.688-5.692,6.796"/>
	</g>
</g>
<g id="Layer_1">
</g>
</svg>
