<?xml version="1.0" encoding="iso-8859-1"?>
<!-- Generator: Adobe Illustrator 23.0.5, SVG Export Plug-In . SVG Version: 6.00 Build 0)  -->
<svg version="1.1" xmlns="http://www.w3.org/2000/svg" xmlns:xlink="http://www.w3.org/1999/xlink" x="0px" y="0px"
	 viewBox="0 0 100 100" style="enable-background:new 0 0 100 100;" xml:space="preserve">
<g id="Singleton">
	<g>
		<g>
			<path style="fill:#0073AA;" d="M66.656,39.173c-0.336,7.02-0.218,14.059,0.351,21.067l-33.6,0.727
				c-0.138-7.311-0.275-14.622-0.413-21.933L66.656,39.173z"/>
			<path style="fill:#FFFFFF;" d="M23.349,22.178c0.463,2.854,0.418,5.79-0.134,8.628l-18.159-0.16
				c0.316-2.846,0.339-5.725,0.068-8.575L23.349,22.178z"/>
			<path style="fill:#FFFFFF;" d="M94.628,22.178c0.463,2.854,0.418,5.79-0.134,8.628l-18.159-0.16
				c0.316-2.846,0.339-5.725,0.068-8.575L94.628,22.178z"/>
			<path style="fill:#FFFFFF;" d="M23.349,69.3c0.463,2.854,0.418,5.79-0.134,8.628l-18.159-0.16
				c0.316-2.846,0.339-5.725,0.068-8.575L23.349,69.3z"/>
			<path style="fill:#FFFFFF;" d="M94.628,69.3c0.463,2.854,0.418,5.79-0.134,8.628l-18.159-0.16
				c0.316-2.846,0.339-5.725,0.068-8.575L94.628,69.3z"/>
			<path style="fill:none;stroke:#000000;stroke-width:2;stroke-linecap:round;stroke-linejoin:round;stroke-miterlimit:10;" d="
				M66.656,39.173c-0.336,7.02-0.218,14.059,0.351,21.067l-33.6,0.727c-0.138-7.311-0.275-14.622-0.413-21.933L66.656,39.173z"/>
			<path style="fill:none;stroke:#000000;stroke-width:2;stroke-linecap:round;stroke-linejoin:round;stroke-miterlimit:10;" d="
				M23.349,22.178c0.463,2.854,0.418,5.79-0.134,8.628l-18.159-0.16c0.316-2.846,0.339-5.725,0.068-8.575L23.349,22.178z"/>
			<path style="fill:none;stroke:#000000;stroke-width:2;stroke-linecap:round;stroke-linejoin:round;stroke-miterlimit:10;" d="
				M94.628,22.178c0.463,2.854,0.418,5.79-0.134,8.628l-18.159-0.16c0.316-2.846,0.339-5.725,0.068-8.575L94.628,22.178z"/>
			<path style="fill:none;stroke:#000000;stroke-width:2;stroke-linecap:round;stroke-linejoin:round;stroke-miterlimit:10;" d="
				M27.804,25.657c5.596-0.27,11.192-0.541,16.789-0.811c-0.103,2.562,0.103,3.582,0,6.144"/>
			<path style="fill:none;stroke:#000000;stroke-width:2;stroke-linecap:round;stroke-linejoin:round;stroke-miterlimit:10;" d="
				M72.196,25.657c-5.596-0.27-11.192-0.541-16.789-0.811c0.103,2.562-0.103,3.582,0,6.144"/>
			<path style="fill:none;stroke:#000000;stroke-width:2;stroke-linecap:round;stroke-linejoin:round;stroke-miterlimit:10;" d="
				M23.349,69.3c0.463,2.854,0.418,5.79-0.134,8.628l-18.159-0.16c0.316-2.846,0.339-5.725,0.068-8.575L23.349,69.3z"/>
			<path style="fill:none;stroke:#000000;stroke-width:2;stroke-linecap:round;stroke-linejoin:round;stroke-miterlimit:10;" d="
				M94.628,69.3c0.463,2.854,0.418,5.79-0.134,8.628l-18.159-0.16c0.316-2.846,0.339-5.725,0.068-8.575L94.628,69.3z"/>
			<path style="fill:none;stroke:#000000;stroke-width:2;stroke-linecap:round;stroke-linejoin:round;stroke-miterlimit:10;" d="
				M27.804,74.343c5.596,0.27,11.192,0.541,16.789,0.811c-0.103-2.562,0.103-3.582,0-6.144"/>
			<path style="fill:none;stroke:#000000;stroke-width:2;stroke-linecap:round;stroke-linejoin:round;stroke-miterlimit:10;" d="
				M72.196,74.343c-5.596,0.27-11.192,0.541-16.789,0.811c0.103-2.562-0.103-3.582,0-6.144"/>
			<path style="fill:none;stroke:#000000;stroke-width:2;stroke-linecap:round;stroke-linejoin:round;stroke-miterlimit:10;" d="
				M13.538,62.222c-0.365-4.084-0.36-8.201,0.013-12.284c4.813-0.043,9.374-0.005,14.186-0.048"/>
			<path style="fill:none;stroke:#000000;stroke-width:2;stroke-linecap:round;stroke-linejoin:round;stroke-miterlimit:10;" d="
				M86.462,62.223c0.365-4.084,0.36-8.201-0.013-12.284c-4.813-0.043-9.374-0.005-14.186-0.048"/>
			<g>
				
					<line style="fill:none;stroke:#000000;stroke-linecap:round;stroke-linejoin:round;stroke-miterlimit:10;" x1="76.706" y1="22.072" x2="76.427" y2="22.35"/>
				
					<line style="fill:none;stroke:#000000;stroke-linecap:round;stroke-linejoin:round;stroke-miterlimit:10;" x1="80.472" y1="22.099" x2="76.589" y2="25.982"/>
				
					<line style="fill:none;stroke:#000000;stroke-linecap:round;stroke-linejoin:round;stroke-miterlimit:10;" x1="84.265" y1="22.117" x2="76.4" y2="29.982"/>
				
					<line style="fill:none;stroke:#000000;stroke-linecap:round;stroke-linejoin:round;stroke-miterlimit:10;" x1="88.032" y1="22.144" x2="79.501" y2="30.674"/>
				
					<line style="fill:none;stroke:#000000;stroke-linecap:round;stroke-linejoin:round;stroke-miterlimit:10;" x1="91.816" y1="22.162" x2="83.268" y2="30.71"/>
				
					<line style="fill:none;stroke:#000000;stroke-linecap:round;stroke-linejoin:round;stroke-miterlimit:10;" x1="94.746" y1="23.033" x2="87.034" y2="30.746"/>
				
					<line style="fill:none;stroke:#000000;stroke-linecap:round;stroke-linejoin:round;stroke-miterlimit:10;" x1="94.935" y1="26.638" x2="90.8" y2="30.773"/>
			</g>
			<g>
				
					<line style="fill:none;stroke:#000000;stroke-linecap:round;stroke-linejoin:round;stroke-miterlimit:10;" x1="5.424" y1="69.191" x2="5.155" y2="69.461"/>
				<polyline style="fill:none;stroke:#000000;stroke-linecap:round;stroke-linejoin:round;stroke-miterlimit:10;" points="
					9.209,69.218 5.316,73.11 5.316,73.119 				"/>
				
					<line style="fill:none;stroke:#000000;stroke-linecap:round;stroke-linejoin:round;stroke-miterlimit:10;" x1="12.984" y1="69.236" x2="5.128" y2="77.092"/>
				
					<line style="fill:none;stroke:#000000;stroke-linecap:round;stroke-linejoin:round;stroke-miterlimit:10;" x1="16.759" y1="69.263" x2="8.229" y2="77.794"/>
				
					<line style="fill:none;stroke:#000000;stroke-linecap:round;stroke-linejoin:round;stroke-miterlimit:10;" x1="20.544" y1="69.281" x2="11.995" y2="77.829"/>
				
					<line style="fill:none;stroke:#000000;stroke-linecap:round;stroke-linejoin:round;stroke-miterlimit:10;" x1="23.474" y1="70.144" x2="15.752" y2="77.865"/>
				
					<line style="fill:none;stroke:#000000;stroke-linecap:round;stroke-linejoin:round;stroke-miterlimit:10;" x1="23.663" y1="73.767" x2="19.537" y2="77.892"/>
			</g>
		</g>
		<path style="fill:none;stroke:#000000;stroke-linecap:round;stroke-linejoin:round;stroke-miterlimit:10;" d="M36.514,51.475
			c-0.174-2.291-0.349-4.582-0.523-6.873c-0.047-0.615-0.053-1.331,0.42-1.727c0.295-0.246,0.701-0.296,1.083-0.335
			c1.436-0.15,2.872-0.299,4.309-0.449"/>
		<path style="fill:none;stroke:#000000;stroke-linecap:round;stroke-linejoin:round;stroke-miterlimit:10;" d="M47.875,56.191
			c4.875-0.08,9.751-0.16,14.626-0.24"/>
		<path style="fill:none;stroke:#000000;stroke-linecap:round;stroke-linejoin:round;stroke-miterlimit:10;" d="M55.854,53.326
			c2.013,0.139,4.048-0.052,6-0.563"/>
		<path style="fill:none;stroke:#000000;stroke-linecap:round;stroke-linejoin:round;stroke-miterlimit:10;" d="M81.502,74.445
			c3.784-0.24,7.569-0.48,11.353-0.719"/>
		<path style="fill:none;stroke:#000000;stroke-linecap:round;stroke-linejoin:round;stroke-miterlimit:10;" d="M10.284,26.889
			c2.6,0.014,5.199,0.027,7.799,0.041"/>
	</g>
</g>
<g id="Layer_1">
</g>
</svg>
