<?xml version="1.0" encoding="iso-8859-1"?>
<!-- Generator: Adobe Illustrator 23.0.5, SVG Export Plug-In . SVG Version: 6.00 Build 0)  -->
<svg version="1.1" id="Layer_1" xmlns="http://www.w3.org/2000/svg" xmlns:xlink="http://www.w3.org/1999/xlink" x="0px" y="0px"
	 viewBox="0 0 110 110" style="enable-background:new 0 0 110 110;" xml:space="preserve">
<g>
	<path style="fill:#FFFFFF;" d="M16.302,84.902c-1.433,1.387-2.872,2.78-4.305,4.167l2.682,2.809l3.206,3.367l2.74,2.866
		c1.387-1.329,3.022-2.918,4.518-4.368"/>
	<path style="fill:none;stroke:#000000;stroke-width:2;stroke-linecap:round;stroke-linejoin:round;stroke-miterlimit:10;" d="
		M16.302,84.902c-1.433,1.387-2.872,2.78-4.305,4.167l2.682,2.809l3.206,3.367l2.74,2.866c1.387-1.329,3.022-2.918,4.518-4.368"/>
	<path style="fill:#FFFFFF;" d="M35.681,53.624c3.461-4.073,7.169-7.935,11.098-11.558c1.394-1.286,3.551-1.246,4.89,0.098
		c0.016,0.016,0.032,0.032,0.048,0.049c1.342,1.346,1.362,3.519,0.051,4.896c-3.567,3.744-7.029,7.396-10.654,11.191L35.681,53.624z
		"/>
	<path style="fill:#FFFFFF;" d="M51.628,69.571c3.461-4.073,7.169-7.935,11.098-11.558c1.394-1.286,3.551-1.246,4.89,0.098
		c0.016,0.016,0.032,0.032,0.048,0.049c1.342,1.346,1.362,3.519,0.051,4.896c-3.567,3.744-7.029,7.396-10.654,11.191"/>
	<path style="fill:none;stroke:#000000;stroke-width:2;stroke-linecap:round;stroke-linejoin:round;stroke-miterlimit:10;" d="
		M35.681,53.624c3.461-4.073,7.169-7.935,11.098-11.558c1.394-1.286,3.551-1.246,4.89,0.098c0.016,0.016,0.032,0.032,0.048,0.049
		c1.342,1.346,1.362,3.519,0.051,4.896c-3.567,3.744-7.029,7.396-10.654,11.191"/>
	<path style="fill:none;stroke:#000000;stroke-width:2;stroke-linecap:round;stroke-linejoin:round;stroke-miterlimit:10;" d="
		M51.628,69.571c3.461-4.073,7.169-7.935,11.098-11.558c1.394-1.286,3.551-1.246,4.89,0.098c0.016,0.016,0.032,0.032,0.048,0.049
		c1.342,1.346,1.362,3.519,0.051,4.896c-3.567,3.744-7.029,7.396-10.654,11.191"/>
	<path style="fill:#0073AA;" d="M60.847,78.79c-3.125,3.727-6.333,7.526-10.515,10.011c-4.181,2.485-9.593,3.451-13.92,1.23
		c-2.517,2.339-4.993,5.129-7.509,7.468L12.502,81.098c2.339-2.517,5.129-4.993,7.468-7.509c-2.221-4.327-1.255-9.739,1.23-13.92
		s6.284-7.39,10.011-10.515L60.847,78.79z"/>
	<path style="fill:none;stroke:#000000;stroke-width:2;stroke-linecap:round;stroke-linejoin:round;stroke-miterlimit:10;" d="
		M60.847,78.79c-3.125,3.727-6.333,7.526-10.515,10.011c-4.181,2.485-9.593,3.451-13.92,1.23c-2.517,2.339-4.993,5.129-7.509,7.468
		L12.502,81.098c2.339-2.517,5.129-4.993,7.468-7.509c-2.221-4.327-1.255-9.739,1.23-13.92s6.284-7.39,10.011-10.515L60.847,78.79z"
		/>
	<path style="fill:#FFFFFF;" d="M48.208,67.455l-6.304,6.112c-1.5,1.454-3.884,1.45-5.379-0.008l0,0
		c-1.519-1.482-1.556-3.912-0.083-5.439l6.091-6.315c1.474-1.528,3.905-1.578,5.44-0.112l0.213,0.203
		C49.77,63.407,49.779,65.931,48.208,67.455z"/>
	<path style="fill:#FFFFFF;" d="M93.698,25.098c1.433-1.387,2.872-2.78,4.305-4.167l-2.682-2.809l-3.206-3.367l-2.74-2.866
		c-1.387,1.329-3.022,2.918-4.518,4.368L93.698,25.098z"/>
	<path style="fill:none;stroke:#000000;stroke-width:2;stroke-linecap:round;stroke-linejoin:round;stroke-miterlimit:10;" d="
		M17.885,95.245c-3.142,3.246-6.296,6.504-9.445,9.755"/>
	<path style="fill:none;stroke:#000000;stroke-width:2;stroke-linecap:round;stroke-linejoin:round;stroke-miterlimit:10;" d="
		M5.154,101.714c3.177-3.281,6.354-6.561,9.525-9.836"/>
	<path style="fill:#0073AA;" d="M49.153,31.21c3.125-3.727,6.333-7.526,10.515-10.011s9.593-3.451,13.92-1.23
		c2.517-2.339,4.993-5.129,7.509-7.468l16.401,16.401c-2.339,2.517-5.129,4.993-7.468,7.509c2.221,4.327,1.255,9.739-1.23,13.92
		s-6.284,7.39-10.011,10.515L49.153,31.21z"/>
	<path style="fill:none;stroke:#000000;stroke-width:2;stroke-linecap:round;stroke-linejoin:round;stroke-miterlimit:10;" d="
		M48.208,67.455l-6.304,6.112c-1.5,1.454-3.884,1.45-5.379-0.008l0,0c-1.519-1.482-1.556-3.912-0.083-5.439l6.091-6.315
		c1.474-1.528,3.905-1.578,5.44-0.112l0.213,0.203C49.77,63.407,49.779,65.931,48.208,67.455z"/>
	<path style="fill:none;stroke:#000000;stroke-width:2;stroke-linecap:round;stroke-linejoin:round;stroke-miterlimit:10;" d="
		M27.001,73.286c3.324,3.152,6.647,6.304,9.971,9.456"/>
	<path style="fill:none;stroke:#000000;stroke-width:2;stroke-linecap:round;stroke-linejoin:round;stroke-miterlimit:10;" d="
		M22.47,77.816c3.324,3.152,6.647,6.304,9.971,9.456"/>
	<path style="fill:none;stroke:#000000;stroke-width:2;stroke-linecap:round;stroke-linejoin:round;stroke-miterlimit:10;" d="
		M93.698,25.098c1.433-1.387,2.872-2.78,4.305-4.167l-2.682-2.809l-3.206-3.367l-2.74-2.866c-1.387,1.329-3.022,2.918-4.518,4.368"
		/>
	<path style="fill:none;stroke:#000000;stroke-width:2;stroke-linecap:round;stroke-linejoin:round;stroke-miterlimit:10;" d="
		M92.115,14.755c3.142-3.246,6.296-6.504,9.445-9.755"/>
	<path style="fill:none;stroke:#000000;stroke-width:2;stroke-linecap:round;stroke-linejoin:round;stroke-miterlimit:10;" d="
		M104.846,8.286c-3.177,3.281-6.354,6.561-9.525,9.836"/>
	<path style="fill:none;stroke:#000000;stroke-width:2;stroke-linecap:round;stroke-linejoin:round;stroke-miterlimit:10;" d="
		M49.153,31.21c3.125-3.727,6.333-7.526,10.515-10.011s9.593-3.451,13.92-1.23c2.517-2.339,4.993-5.129,7.509-7.468l16.401,16.401
		c-2.339,2.517-5.129,4.993-7.468,7.509c2.221,4.327,1.255,9.739-1.23,13.92s-6.284,7.39-10.011,10.515L49.153,31.21z"/>
	
		<line style="fill:none;stroke:#000000;stroke-linecap:round;stroke-linejoin:round;stroke-miterlimit:10;" x1="52.45" y1="43.31" x2="45.46" y2="43.31"/>
	
		<line style="fill:none;stroke:#000000;stroke-linecap:round;stroke-linejoin:round;stroke-miterlimit:10;" x1="52.53" y1="45.87" x2="42.82" y2="45.87"/>
	
		<line style="fill:none;stroke:#000000;stroke-linecap:round;stroke-linejoin:round;stroke-miterlimit:10;" x1="50.51" y1="48.43" x2="40.34" y2="48.43"/>
	
		<line style="fill:none;stroke:#000000;stroke-linecap:round;stroke-linejoin:round;stroke-miterlimit:10;" x1="48.07" y1="50.99" x2="37.98" y2="50.99"/>
	
		<line style="fill:none;stroke:#000000;stroke-linecap:round;stroke-linejoin:round;stroke-miterlimit:10;" x1="45.63" y1="53.55" x2="35.74" y2="53.55"/>
	
		<line style="fill:none;stroke:#000000;stroke-linecap:round;stroke-linejoin:round;stroke-miterlimit:10;" x1="43.19" y1="56.11" x2="38.57" y2="56.11"/>
	
		<line style="fill:none;stroke:#000000;stroke-linecap:round;stroke-linejoin:round;stroke-miterlimit:10;" x1="68.471" y1="59.26" x2="61.481" y2="59.26"/>
	
		<line style="fill:none;stroke:#000000;stroke-linecap:round;stroke-linejoin:round;stroke-miterlimit:10;" x1="68.551" y1="61.82" x2="58.841" y2="61.82"/>
	
		<line style="fill:none;stroke:#000000;stroke-linecap:round;stroke-linejoin:round;stroke-miterlimit:10;" x1="66.531" y1="64.381" x2="56.361" y2="64.381"/>
	
		<line style="fill:none;stroke:#000000;stroke-linecap:round;stroke-linejoin:round;stroke-miterlimit:10;" x1="64.091" y1="66.94" x2="54.001" y2="66.94"/>
	
		<line style="fill:none;stroke:#000000;stroke-linecap:round;stroke-linejoin:round;stroke-miterlimit:10;" x1="61.651" y1="69.5" x2="51.761" y2="69.5"/>
	
		<line style="fill:none;stroke:#000000;stroke-linecap:round;stroke-linejoin:round;stroke-miterlimit:10;" x1="59.211" y1="72.061" x2="54.591" y2="72.061"/>
	<g>
		
			<line style="fill:none;stroke:#000000;stroke-linecap:round;stroke-linejoin:round;stroke-miterlimit:10;" x1="49.16" y1="63.42" x2="40.97" y2="63.42"/>
		
			<line style="fill:none;stroke:#000000;stroke-linecap:round;stroke-linejoin:round;stroke-miterlimit:10;" x1="49.06" y1="66.23" x2="38.26" y2="66.23"/>
		
			<line style="fill:none;stroke:#000000;stroke-linecap:round;stroke-linejoin:round;stroke-miterlimit:10;" x1="46.56" y1="69.05" x2="35.78" y2="69.05"/>
		
			<line style="fill:none;stroke:#000000;stroke-linecap:round;stroke-linejoin:round;stroke-miterlimit:10;" x1="43.66" y1="71.86" x2="35.51" y2="71.86"/>
	</g>
	
		<line style="fill:none;stroke:#000000;stroke-linecap:round;stroke-linejoin:round;stroke-miterlimit:10;" x1="90.32" y1="12.87" x2="88.36" y2="12.87"/>
	
		<line style="fill:none;stroke:#000000;stroke-linecap:round;stroke-linejoin:round;stroke-miterlimit:10;" x1="92.46" y1="15.12" x2="86.03" y2="15.12"/>
	
		<line style="fill:none;stroke:#000000;stroke-linecap:round;stroke-linejoin:round;stroke-miterlimit:10;" x1="94.61" y1="17.37" x2="85.97" y2="17.37"/>
	
		<line style="fill:none;stroke:#000000;stroke-linecap:round;stroke-linejoin:round;stroke-miterlimit:10;" x1="96.75" y1="19.62" x2="88.22" y2="19.62"/>
	
		<line style="fill:none;stroke:#000000;stroke-linecap:round;stroke-linejoin:round;stroke-miterlimit:10;" x1="97.03" y1="21.87" x2="90.47" y2="21.87"/>
	
		<line style="fill:none;stroke:#000000;stroke-linecap:round;stroke-linejoin:round;stroke-miterlimit:10;" x1="94.72" y1="24.11" x2="92.71" y2="24.11"/>
	<path style="fill:none;stroke:#000000;stroke-linecap:round;stroke-linejoin:round;stroke-miterlimit:10;" d="M86.567,38.375
		c0.897,5.014-0.946,10.433-4.713,13.862"/>
	<path style="fill:none;stroke:#000000;stroke-linecap:round;stroke-linejoin:round;stroke-miterlimit:10;" d="M23.953,69.361
		c-0.968-4.577,0.77-9.624,4.353-12.633"/>
	<path style="fill:none;stroke:#000000;stroke-linecap:round;stroke-linejoin:round;stroke-miterlimit:10;" d="M49.998,73.754
		c1.503,1.759,3.005,3.519,4.508,5.278"/>
	<path style="fill:none;stroke:#000000;stroke-linecap:round;stroke-linejoin:round;stroke-miterlimit:10;" d="M80.962,17.742
		c1.635,1.831,3.378,3.566,5.216,5.192"/>
</g>
</svg>
