<?xml version="1.0" encoding="iso-8859-1"?>
<!-- Generator: Adobe Illustrator 23.0.5, SVG Export Plug-In . SVG Version: 6.00 Build 0)  -->
<svg version="1.1" xmlns="http://www.w3.org/2000/svg" xmlns:xlink="http://www.w3.org/1999/xlink" x="0px" y="0px"
	 viewBox="0 0 100 100" style="enable-background:new 0 0 100 100;" xml:space="preserve">
<g id="Factory">
	<g>
		<g>
			<path style="fill:#FFFFFF;" d="M16.75,66.629c-0.404-14.215,0.267-28.46,2.004-42.574c3.286-0.324,6.255-0.217,9.516,0.301
				c1.404,14.247,2.826,28.292,4.23,42.539L16.75,66.629z"/>
			<path style="fill:#FFFFFF;" d="M38.075,66.729c-0.323-8.874,0.213-17.768,1.602-26.579c2.626-0.202,5-0.135,7.607,0.188
				c1.123,8.894,2.259,17.663,3.382,26.557L38.075,66.729z"/>
			<path style="fill:#0073AA;" d="M58.651,65.581c0.026-2.364,0.052-4.729,0.078-7.093c7.371,0.196,14.709,0.223,22.08,0.42
				c-0.152,2.437-0.149,4.689-0.302,7.126"/>
			<path style="fill:none;stroke:#000000;stroke-width:2;stroke-linecap:round;stroke-linejoin:round;stroke-miterlimit:10;" d="
				M16.75,66.629c-0.404-14.215,0.267-28.46,2.004-42.574c3.286-0.324,6.255-0.217,9.516,0.301
				c1.404,14.247,2.826,28.292,4.23,42.539"/>
			<path style="fill:none;stroke:#000000;stroke-width:2;stroke-linecap:round;stroke-linejoin:round;stroke-miterlimit:10;" d="
				M38.075,66.729c-0.323-8.874,0.213-17.768,1.602-26.579c2.626-0.202,5-0.135,7.607,0.188c1.123,8.894,2.259,17.663,3.382,26.557"
				/>
			<path style="fill:none;stroke:#000000;stroke-width:2;stroke-linecap:round;stroke-linejoin:round;stroke-miterlimit:10;" d="
				M58.651,65.581c0.026-2.364,0.052-4.729,0.078-7.093c7.371,0.196,14.709,0.223,22.08,0.42c-0.152,2.437-0.149,4.689-0.302,7.126"
				/>
			<path style="fill:none;stroke:#000000;stroke-width:2;stroke-linecap:round;stroke-linejoin:round;stroke-miterlimit:10;" d="
				M40.637,35.302c-0.489-0.961-0.024-2.206,0.831-2.864c0.855-0.657,1.993-0.827,3.071-0.79c-0.955-1.562-1.297-3.56-0.368-5.137
				s2.766-2.574,4.595-2.495c-1.272-0.508-2.012-1.574-2.108-2.94c-0.062-0.885,0.223-1.81,0.85-2.439
				c0.626-0.629,1.604-0.919,2.447-0.64c0.103-2.186,0.787-4.146,2.62-5.34c1.465-0.954,3.367-1.054,5.057-0.606
				c1.69,0.448,3.204,1.393,4.622,2.416"/>
			<path style="fill:none;stroke:#000000;stroke-width:2;stroke-linecap:round;stroke-linejoin:round;stroke-miterlimit:10;" d="
				M56.645,23.398c0.764-0.188,1.475-0.563,2.052-1.099c0.657-0.63,1.126-1.475,1.314-2.373"/>
			<path style="fill:none;stroke:#000000;stroke-width:2;stroke-linecap:round;stroke-linejoin:round;stroke-miterlimit:10;" d="
				M55.674,21.674c1.248,1.496,1.621,3.673,0.943,5.499c-0.678,1.826-2.382,3.232-4.304,3.551"/>
			<path style="fill:none;stroke:#000000;stroke-width:2;stroke-linecap:round;stroke-linejoin:round;stroke-miterlimit:10;" d="
				M53.762,30.263c0.067,0.724,0,1.448-0.228,2.145c-0.51,1.488-1.73,2.695-3.218,3.191"/>
			<path style="fill:none;stroke:#000000;stroke-width:2;stroke-linecap:round;stroke-linejoin:round;stroke-miterlimit:10;" d="
				M23.704,18.587c-0.739-3.848,0.885-5.288,2.369-5.234c-2.052-2.037,3.068-6.201,6.608-2.94"/>
			<path style="fill:none;stroke:#000000;stroke-width:2;stroke-linecap:round;stroke-linejoin:round;stroke-miterlimit:10;" d="
				M28.755,9.301c-0.484-3.391,5.393-6.192,8.903-2.682"/>
			<g>
				
					<line style="fill:none;stroke:#000000;stroke-linecap:round;stroke-linejoin:round;stroke-miterlimit:10;" x1="21.353" y1="23.896" x2="18.44" y2="26.809"/>
				
					<line style="fill:none;stroke:#000000;stroke-linecap:round;stroke-linejoin:round;stroke-miterlimit:10;" x1="25.074" y1="23.977" x2="17.991" y2="31.06"/>
				
					<line style="fill:none;stroke:#000000;stroke-linecap:round;stroke-linejoin:round;stroke-miterlimit:10;" x1="28.292" y1="24.553" x2="17.613" y2="35.231"/>
				
					<line style="fill:none;stroke:#000000;stroke-linecap:round;stroke-linejoin:round;stroke-miterlimit:10;" x1="28.634" y1="28.013" x2="17.299" y2="39.357"/>
				
					<line style="fill:none;stroke:#000000;stroke-linecap:round;stroke-linejoin:round;stroke-miterlimit:10;" x1="28.975" y1="31.474" x2="17.047" y2="43.402"/>
				
					<line style="fill:none;stroke:#000000;stroke-linecap:round;stroke-linejoin:round;stroke-miterlimit:10;" x1="29.317" y1="34.935" x2="16.867" y2="47.384"/>
				
					<line style="fill:none;stroke:#000000;stroke-linecap:round;stroke-linejoin:round;stroke-miterlimit:10;" x1="29.667" y1="38.386" x2="16.741" y2="51.312"/>
				
					<line style="fill:none;stroke:#000000;stroke-linecap:round;stroke-linejoin:round;stroke-miterlimit:10;" x1="30.009" y1="41.847" x2="16.66" y2="55.187"/>
				
					<line style="fill:none;stroke:#000000;stroke-linecap:round;stroke-linejoin:round;stroke-miterlimit:10;" x1="30.35" y1="45.299" x2="16.633" y2="59.016"/>
				
					<line style="fill:none;stroke:#000000;stroke-linecap:round;stroke-linejoin:round;stroke-miterlimit:10;" x1="30.701" y1="48.751" x2="16.669" y2="62.782"/>
				
					<line style="fill:none;stroke:#000000;stroke-linecap:round;stroke-linejoin:round;stroke-miterlimit:10;" x1="31.043" y1="52.211" x2="16.75" y2="66.504"/>
				
					<line style="fill:none;stroke:#000000;stroke-linecap:round;stroke-linejoin:round;stroke-miterlimit:10;" x1="31.393" y1="55.663" x2="20.364" y2="66.692"/>
				
					<line style="fill:none;stroke:#000000;stroke-linecap:round;stroke-linejoin:round;stroke-miterlimit:10;" x1="31.726" y1="59.124" x2="24.094" y2="66.755"/>
				
					<line style="fill:none;stroke:#000000;stroke-linecap:round;stroke-linejoin:round;stroke-miterlimit:10;" x1="32.067" y1="62.584" x2="27.833" y2="66.818"/>
				
					<line style="fill:none;stroke:#000000;stroke-linecap:round;stroke-linejoin:round;stroke-miterlimit:10;" x1="32.409" y1="66.045" x2="31.573" y2="66.881"/>
			</g>
			
				<line style="fill:none;stroke:#000000;stroke-width:2;stroke-linecap:round;stroke-linejoin:round;stroke-miterlimit:10;" x1="94.944" y1="94.862" x2="5.056" y2="94.398"/>
			<g>
				
					<line style="fill:none;stroke:#000000;stroke-linecap:round;stroke-linejoin:round;stroke-miterlimit:10;" x1="40.589" y1="40.094" x2="39.537" y2="41.146"/>
				
					<line style="fill:none;stroke:#000000;stroke-linecap:round;stroke-linejoin:round;stroke-miterlimit:10;" x1="44.4" y1="40.085" x2="38.935" y2="45.56"/>
				
					<line style="fill:none;stroke:#000000;stroke-linecap:round;stroke-linejoin:round;stroke-miterlimit:10;" x1="47.357" y1="40.93" x2="38.503" y2="49.784"/>
				
					<line style="fill:none;stroke:#000000;stroke-linecap:round;stroke-linejoin:round;stroke-miterlimit:10;" x1="47.789" y1="44.301" x2="38.216" y2="53.874"/>
				
					<line style="fill:none;stroke:#000000;stroke-linecap:round;stroke-linejoin:round;stroke-miterlimit:10;" x1="48.22" y1="47.672" x2="38.045" y2="57.847"/>
				
					<line style="fill:none;stroke:#000000;stroke-linecap:round;stroke-linejoin:round;stroke-miterlimit:10;" x1="48.643" y1="51.043" x2="37.982" y2="61.703"/>
				
					<line style="fill:none;stroke:#000000;stroke-linecap:round;stroke-linejoin:round;stroke-miterlimit:10;" x1="49.074" y1="54.423" x2="38.036" y2="65.461"/>
				
					<line style="fill:none;stroke:#000000;stroke-linecap:round;stroke-linejoin:round;stroke-miterlimit:10;" x1="49.506" y1="57.784" x2="40.526" y2="66.764"/>
				
					<line style="fill:none;stroke:#000000;stroke-linecap:round;stroke-linejoin:round;stroke-miterlimit:10;" x1="49.937" y1="61.155" x2="44.283" y2="66.809"/>
				
					<line style="fill:none;stroke:#000000;stroke-linecap:round;stroke-linejoin:round;stroke-miterlimit:10;" x1="50.369" y1="64.526" x2="48.031" y2="66.863"/>
			</g>
			<path style="fill:#FFFFFF;" d="M12.432,94.398c0.219-9.421,0.438-18.841,0.657-28.262c24.687-0.173,49.567-0.666,74.254-0.839
				c-0.028,9.941,0.254,19.622,0.225,29.564L12.432,94.398z"/>
			<path style="fill:#0073AA;" d="M20.961,94.512c-0.086-5.462-0.172-10.925-0.258-16.387c8.316,0.018,16.462-0.131,24.778-0.113
				c0.06,5.625,0.37,11.363,0.43,16.988"/>
			<path style="fill:#0073AA;" d="M54.349,94.512c-0.086-5.462-0.172-10.925-0.258-16.387c8.316,0.018,16.462-0.131,24.778-0.113
				c0.06,5.625,0.37,11.363,0.43,16.988"/>
			<path style="fill:none;stroke:#000000;stroke-width:2;stroke-linecap:round;stroke-linejoin:round;stroke-miterlimit:10;" d="
				M12.432,94.398c0.219-9.421,0.438-18.841,0.657-28.262c24.687-0.173,49.567-0.666,74.254-0.839
				c-0.028,9.941,0.254,19.622,0.225,29.564L12.432,94.398z"/>
			<path style="fill:none;stroke:#000000;stroke-width:2;stroke-linecap:round;stroke-linejoin:round;stroke-miterlimit:10;" d="
				M20.961,94.512c-0.086-5.462-0.172-10.925-0.258-16.387c8.316,0.018,16.462-0.131,24.778-0.113
				c0.06,5.625,0.362,10.761,0.422,16.387"/>
			<path style="fill:none;stroke:#000000;stroke-width:2;stroke-linecap:round;stroke-linejoin:round;stroke-miterlimit:10;" d="
				M54.349,94.512c-0.086-5.462-0.172-10.925-0.258-16.387c8.316,0.018,16.462-0.131,24.778-0.113
				c0.06,5.625,0.37,11.363,0.43,16.988"/>
		</g>
		<g>
			<path style="fill:none;stroke:#000000;stroke-linecap:round;stroke-linejoin:round;stroke-miterlimit:10;" d="M81.059,72.167
				c-4.108-0.194-8.234,0.008-12.303,0.603"/>
			<path style="fill:none;stroke:#000000;stroke-linecap:round;stroke-linejoin:round;stroke-miterlimit:10;" d="M72.842,69.855
				c-4.043,0.363-8.086,0.726-12.129,1.089"/>
			<path style="fill:none;stroke:#000000;stroke-linecap:round;stroke-linejoin:round;stroke-miterlimit:10;" d="M57.596,71.105
				c-0.437,0.027-0.875,0.055-1.312,0.082"/>
		</g>
		<path style="fill:none;stroke:#000000;stroke-linecap:round;stroke-linejoin:round;stroke-miterlimit:10;" d="M24.449,91.057
			c-0.135-2.654-0.021-5.321,0.339-7.955"/>
		<path style="fill:none;stroke:#000000;stroke-linecap:round;stroke-linejoin:round;stroke-miterlimit:10;" d="M58.148,81.4
			c3.801,0.058,7.602,0.116,11.403,0.174"/>
	</g>
</g>
<g id="Layer_1">
</g>
</svg>
