<?xml version="1.0" encoding="iso-8859-1"?>
<!-- Generator: Adobe Illustrator 23.0.5, SVG Export Plug-In . SVG Version: 6.00 Build 0)  -->
<svg version="1.1" xmlns="http://www.w3.org/2000/svg" xmlns:xlink="http://www.w3.org/1999/xlink" x="0px" y="0px"
	 viewBox="0 0 100 100" style="enable-background:new 0 0 100 100;" xml:space="preserve">
<g id="Memento">
	<g>
		<path style="fill:#FFFFFF;" d="M94.54,76.716c-0.198,3.676-3.02,6.661-6.688,7.038c-11.919,1.231-39.937,3.614-76.378,1.843
			h-0.036l-0.18,0.009C8.409,85.687,6,83.493,5.82,80.644C4.876,66.127,4.849,54.567,5.505,40.76c0.18-3.739,3.02-6.814,6.733-7.254
			l5.025-0.602c0.009-0.198,0.009-0.396,0.009-0.602c0.018-3.955,3.056-7.254,7.002-7.596c7.551-0.647,13.726-0.998,21.564-0.971
			c2.454,0.009,4.782-1.151,6.211-3.137c0.692-0.962,1.537-1.906,2.202-2.858c1.357-1.96,3.47-3.236,5.843-3.416
			c8.162-0.62,16.414-0.701,24.602-0.333c3.658,0.171,6.679,2.921,7.218,6.544C94.693,39.053,95.538,58.019,94.54,76.716z"/>
		<path style="fill:#0073AA;" d="M17.032,59.481h77.882c-0.045-6.014-0.285-12.033-0.711-18.033H17.032V59.481z"/>
		<path style="fill:none;stroke:#000000;stroke-width:2;stroke-linecap:round;stroke-linejoin:round;stroke-miterlimit:10;" d="
			M17.265,32.902l-5.03,0.603c-3.714,0.445-6.554,3.516-6.731,7.252C4.85,54.567,4.877,66.125,5.816,80.645
			c0.184,2.844,2.592,5.04,5.441,4.958l0.529-0.015c2.796-0.081,4.879-2.385,4.989-5.179c0.007-0.165,0.212,1.91,0.493-48.109
			c0.022-3.955,3.064-7.255,7.004-7.592c7.556-0.646,13.724-1.003,21.563-0.97c2.454,0.01,4.78-1.149,6.214-3.141
			c0.688-0.956,1.538-1.904,2.201-2.86c1.356-1.954,3.473-3.235,5.845-3.414c8.161-0.616,16.414-0.697,24.597-0.33
			c3.661,0.164,6.679,2.92,7.222,6.544c2.775,18.516,3.624,37.484,2.627,56.176c-0.196,3.677-3.026,6.666-6.69,7.043
			C75.929,84.986,47.9,87.364,11.44,85.598"/>
		<g>
			
				<line style="fill:none;stroke:#000000;stroke-linecap:round;stroke-linejoin:round;stroke-miterlimit:10;" x1="12.085" y1="33.533" x2="5.568" y2="40.05"/>
			
				<line style="fill:none;stroke:#000000;stroke-linecap:round;stroke-linejoin:round;stroke-miterlimit:10;" x1="16.4" y1="33.012" x2="5.361" y2="44.05"/>
			
				<line style="fill:none;stroke:#000000;stroke-linecap:round;stroke-linejoin:round;stroke-miterlimit:10;" x1="17.047" y1="36.176" x2="5.218" y2="48.005"/>
			
				<line style="fill:none;stroke:#000000;stroke-linecap:round;stroke-linejoin:round;stroke-miterlimit:10;" x1="17.047" y1="39.969" x2="5.119" y2="51.898"/>
			
				<line style="fill:none;stroke:#000000;stroke-linecap:round;stroke-linejoin:round;stroke-miterlimit:10;" x1="17.047" y1="43.772" x2="5.065" y2="55.754"/>
			
				<line style="fill:none;stroke:#000000;stroke-linecap:round;stroke-linejoin:round;stroke-miterlimit:10;" x1="17.047" y1="47.574" x2="5.056" y2="59.565"/>
			
				<line style="fill:none;stroke:#000000;stroke-linecap:round;stroke-linejoin:round;stroke-miterlimit:10;" x1="17.047" y1="51.367" x2="5.092" y2="63.322"/>
			
				<line style="fill:none;stroke:#000000;stroke-linecap:round;stroke-linejoin:round;stroke-miterlimit:10;" x1="17.047" y1="55.178" x2="5.182" y2="67.044"/>
			
				<line style="fill:none;stroke:#000000;stroke-linecap:round;stroke-linejoin:round;stroke-miterlimit:10;" x1="17.047" y1="58.972" x2="5.299" y2="70.72"/>
			
				<line style="fill:none;stroke:#000000;stroke-linecap:round;stroke-linejoin:round;stroke-miterlimit:10;" x1="17.047" y1="62.783" x2="5.46" y2="74.361"/>
			
				<line style="fill:none;stroke:#000000;stroke-linecap:round;stroke-linejoin:round;stroke-miterlimit:10;" x1="17.047" y1="66.576" x2="5.658" y2="77.965"/>
			
				<line style="fill:none;stroke:#000000;stroke-linecap:round;stroke-linejoin:round;stroke-miterlimit:10;" x1="17.047" y1="70.379" x2="5.946" y2="81.48"/>
			
				<line style="fill:none;stroke:#000000;stroke-linecap:round;stroke-linejoin:round;stroke-miterlimit:10;" x1="17.047" y1="74.181" x2="7.267" y2="83.961"/>
			
				<line style="fill:none;stroke:#000000;stroke-linecap:round;stroke-linejoin:round;stroke-miterlimit:10;" x1="17.047" y1="77.974" x2="9.622" y2="85.399"/>
			
				<line style="fill:none;stroke:#000000;stroke-linecap:round;stroke-linejoin:round;stroke-miterlimit:10;" x1="16.741" y1="82.091" x2="13.523" y2="85.309"/>
		</g>
		<g>
			<path style="fill:none;stroke:#000000;stroke-linecap:round;stroke-linejoin:round;stroke-miterlimit:10;" d="M87.426,76.784
				c-4.108-0.194-8.234,0.008-12.303,0.603"/>
			<path style="fill:none;stroke:#000000;stroke-linecap:round;stroke-linejoin:round;stroke-miterlimit:10;" d="M79.209,74.472
				c-4.043,0.363-8.086,0.726-12.129,1.089"/>
			<path style="fill:none;stroke:#000000;stroke-linecap:round;stroke-linejoin:round;stroke-miterlimit:10;" d="M63.963,75.722
				c-0.437,0.027-0.875,0.055-1.312,0.082"/>
		</g>
		<g>
			<path style="fill:none;stroke:#000000;stroke-linecap:round;stroke-linejoin:round;stroke-miterlimit:10;" d="M51.006,33.867
				c-4.108-0.194-8.234,0.008-12.303,0.603"/>
			<path style="fill:none;stroke:#000000;stroke-linecap:round;stroke-linejoin:round;stroke-miterlimit:10;" d="M42.789,31.555
				c-4.043,0.363-8.086,0.726-12.129,1.089"/>
			<path style="fill:none;stroke:#000000;stroke-linecap:round;stroke-linejoin:round;stroke-miterlimit:10;" d="M27.543,32.805
				c-0.437,0.027-0.875,0.055-1.312,0.082"/>
		</g>
	</g>
</g>
<g id="Layer_1">
</g>
</svg>
