<?xml version="1.0" encoding="iso-8859-1"?>
<!-- Generator: Adobe Illustrator 23.0.5, SVG Export Plug-In . SVG Version: 6.00 Build 0)  -->
<svg version="1.1" xmlns="http://www.w3.org/2000/svg" xmlns:xlink="http://www.w3.org/1999/xlink" x="0px" y="0px"
	 viewBox="0 0 100 100" style="enable-background:new 0 0 100 100;" xml:space="preserve">
<g id="Proxy">
	<g>
		<g>
			<path style="fill:#FFFFFF;" d="M60.254,86.276c0.766-24.129,1.139-48.27,1.12-72.411c11.049-0.101,24.896-0.125,33.194-0.14
				c0.075,14.193,0.151,28.387,0.226,42.58c0.05,9.437,0.1,20.535,0.15,29.972H60.254z"/>
			<path style="fill:#0073AA;" d="M6.661,18.121c1.055,0.978,2.627,1.284,4.032,0.978c2.334-0.507,4.188-2.709,4.291-5.096
				C15.155,10,10.166,6.513,6.652,9.158C4.351,10.89,4.701,16.305,6.661,18.121z"/>
			<path style="fill:#0073AA;" d="M6.661,54.397c1.055,0.978,2.627,1.284,4.032,0.978c2.334-0.507,4.188-2.709,4.291-5.096
				c0.171-4.004-4.818-7.491-8.332-4.846C4.351,47.166,4.701,52.581,6.661,54.397z"/>
			<path style="fill:#0073AA;" d="M6.661,90.673c1.055,0.978,2.627,1.284,4.032,0.978c2.334-0.507,4.188-2.709,4.291-5.096
				c0.171-4.004-4.818-7.491-8.332-4.846C4.351,83.442,4.701,88.856,6.661,90.673z"/>
			<path style="fill:none;stroke:#000000;stroke-width:2;stroke-linecap:round;stroke-linejoin:round;stroke-miterlimit:10;" d="
				M60.254,86.276c0.766-24.129,1.139-48.27,1.12-72.411c11.049-0.101,24.896-0.125,33.194-0.14
				c0.075,14.193,0.151,28.387,0.226,42.58c0.05,9.437,0.1,20.535,0.15,29.972H60.254z"/>
			<path style="fill:#FFFFFF;" d="M60.742,68.64c-0.14,5.879-0.301,11.758-0.488,17.636h34.691
				c-0.029-5.531-0.059-11.632-0.088-17.636H60.742z"/>
			<path style="fill:none;stroke:#000000;stroke-width:2;stroke-linecap:round;stroke-linejoin:round;stroke-miterlimit:10;" d="
				M60.742,68.64c-0.14,5.879-0.301,11.758-0.488,17.636h34.691c-0.029-5.531-0.059-11.632-0.088-17.636H60.742z"/>
			<path style="fill:none;stroke:#000000;stroke-width:2;stroke-linecap:round;stroke-linejoin:round;stroke-miterlimit:10;" d="
				M67.406,29.47c6.775-0.538,13.596-0.626,20.386-0.264"/>
			<path style="fill:none;stroke:#000000;stroke-width:2;stroke-linecap:round;stroke-linejoin:round;stroke-miterlimit:10;" d="
				M69.19,22.021c0.006,0.321,0.013,0.641,0.019,0.962"/>
			<path style="fill:none;stroke:#000000;stroke-width:2;stroke-linecap:round;stroke-linejoin:round;stroke-miterlimit:10;" d="
				M75.703,21.869c0,0.202,0,0.405,0,0.607"/>
			<path style="fill:none;stroke:#000000;stroke-width:2;stroke-linecap:round;stroke-linejoin:round;stroke-miterlimit:10;" d="
				M67.406,47.597c6.775-0.538,13.596-0.626,20.386-0.264"/>
			<path style="fill:none;stroke:#000000;stroke-width:2;stroke-linecap:round;stroke-linejoin:round;stroke-miterlimit:10;" d="
				M69.19,40.148c0.006,0.321,0.013,0.641,0.019,0.962"/>
			<path style="fill:none;stroke:#000000;stroke-width:2;stroke-linecap:round;stroke-linejoin:round;stroke-miterlimit:10;" d="
				M75.703,39.995c0,0.202,0,0.405,0,0.607"/>
			<path style="fill:none;stroke:#000000;stroke-width:2;stroke-linecap:round;stroke-linejoin:round;stroke-miterlimit:10;" d="
				M14.988,14.036c7.403-0.275,14.807-0.551,22.21-0.826c1.388,23.924,1.702,47.928,0.994,71.882
				c-7.357,0.018-14.353,0.652-21.71,0.67"/>
			<path style="fill:none;stroke:#000000;stroke-width:2;stroke-linecap:round;stroke-linejoin:round;stroke-miterlimit:10;" d="
				M16.79,49.963c11.396-1.05,22.873-1.233,34.297-0.548"/>
			<path style="fill:none;stroke:#000000;stroke-width:2;stroke-linecap:round;stroke-linejoin:round;stroke-miterlimit:10;" d="
				M6.661,18.121c1.055,0.978,2.627,1.284,4.032,0.978c2.334-0.507,4.188-2.709,4.291-5.096C15.155,10,10.166,6.513,6.652,9.158
				C4.351,10.89,4.701,16.305,6.661,18.121z"/>
			<path style="fill:none;stroke:#000000;stroke-width:2;stroke-linecap:round;stroke-linejoin:round;stroke-miterlimit:10;" d="
				M6.661,54.397c1.055,0.978,2.627,1.284,4.032,0.978c2.334-0.507,4.188-2.709,4.291-5.096c0.171-4.004-4.818-7.491-8.332-4.846
				C4.351,47.166,4.701,52.581,6.661,54.397z"/>
			<path style="fill:none;stroke:#000000;stroke-width:2;stroke-linecap:round;stroke-linejoin:round;stroke-miterlimit:10;" d="
				M6.661,90.673c1.055,0.978,2.627,1.284,4.032,0.978c2.334-0.507,4.188-2.709,4.291-5.096c0.171-4.004-4.818-7.491-8.332-4.846
				C4.351,83.442,4.701,88.856,6.661,90.673z"/>
			<g>
				
					<line style="fill:none;stroke:#000000;stroke-linecap:round;stroke-linejoin:round;stroke-miterlimit:10;" x1="61.712" y1="68.643" x2="60.715" y2="69.632"/>
				
					<line style="fill:none;stroke:#000000;stroke-linecap:round;stroke-linejoin:round;stroke-miterlimit:10;" x1="65.506" y1="68.643" x2="60.616" y2="73.533"/>
				
					<line style="fill:none;stroke:#000000;stroke-linecap:round;stroke-linejoin:round;stroke-miterlimit:10;" x1="69.308" y1="68.643" x2="60.517" y2="77.434"/>
				
					<line style="fill:none;stroke:#000000;stroke-linecap:round;stroke-linejoin:round;stroke-miterlimit:10;" x1="73.11" y1="68.643" x2="60.4" y2="81.353"/>
				
					<line style="fill:none;stroke:#000000;stroke-linecap:round;stroke-linejoin:round;stroke-miterlimit:10;" x1="76.913" y1="68.643" x2="60.283" y2="85.272"/>
				
					<line style="fill:none;stroke:#000000;stroke-linecap:round;stroke-linejoin:round;stroke-miterlimit:10;" x1="80.706" y1="68.643" x2="63.079" y2="86.279"/>
				
					<line style="fill:none;stroke:#000000;stroke-linecap:round;stroke-linejoin:round;stroke-miterlimit:10;" x1="84.517" y1="68.643" x2="66.881" y2="86.279"/>
				
					<line style="fill:none;stroke:#000000;stroke-linecap:round;stroke-linejoin:round;stroke-miterlimit:10;" x1="88.31" y1="68.643" x2="70.674" y2="86.279"/>
				
					<line style="fill:none;stroke:#000000;stroke-linecap:round;stroke-linejoin:round;stroke-miterlimit:10;" x1="92.122" y1="68.643" x2="74.477" y2="86.279"/>
				
					<line style="fill:none;stroke:#000000;stroke-linecap:round;stroke-linejoin:round;stroke-miterlimit:10;" x1="94.854" y1="69.704" x2="78.279" y2="86.279"/>
				
					<line style="fill:none;stroke:#000000;stroke-linecap:round;stroke-linejoin:round;stroke-miterlimit:10;" x1="94.872" y1="73.488" x2="82.081" y2="86.279"/>
				
					<line style="fill:none;stroke:#000000;stroke-linecap:round;stroke-linejoin:round;stroke-miterlimit:10;" x1="94.899" y1="77.263" x2="85.883" y2="86.279"/>
				
					<line style="fill:none;stroke:#000000;stroke-linecap:round;stroke-linejoin:round;stroke-miterlimit:10;" x1="94.917" y1="81.038" x2="89.677" y2="86.279"/>
				
					<line style="fill:none;stroke:#000000;stroke-linecap:round;stroke-linejoin:round;stroke-miterlimit:10;" x1="94.935" y1="84.823" x2="93.488" y2="86.279"/>
			</g>
		</g>
		<g>
			<path style="fill:none;stroke:#000000;stroke-linecap:round;stroke-linejoin:round;stroke-miterlimit:10;" d="M88.941,32.495
				c0.491,4.083,0.589,8.213,0.291,12.314"/>
			<path style="fill:none;stroke:#000000;stroke-linecap:round;stroke-linejoin:round;stroke-miterlimit:10;" d="M91.842,40.523
				c-0.069,4.059-0.138,8.117-0.207,12.176"/>
			<path style="fill:none;stroke:#000000;stroke-linecap:round;stroke-linejoin:round;stroke-miterlimit:10;" d="M91.7,55.819
				c0.004,0.438,0.009,0.876,0.013,1.315"/>
		</g>
		<path style="fill:none;stroke:#000000;stroke-linecap:round;stroke-linejoin:round;stroke-miterlimit:10;" d="M64.078,53.109
			c0.014,3.228,0.028,6.456,0.042,9.684c0.004,0.877,0.054,1.863,0.705,2.451c0.601,0.543,1.501,0.546,2.311,0.518
			c2.127-0.073,4.254-0.146,6.381-0.22"/>
		<path style="fill:none;stroke:#000000;stroke-linecap:round;stroke-linejoin:round;stroke-miterlimit:10;" d="M82.219,16.312
			c2.883,0.214,5.767,0.428,8.65,0.642"/>
		<path style="fill:none;stroke:#000000;stroke-linecap:round;stroke-linejoin:round;stroke-miterlimit:10;" d="M8.306,47.896
			c-0.186,0.427-0.313,0.88-0.375,1.342c-0.065,0.481-0.057,0.988,0.144,1.431c0.201,0.442,0.625,0.806,1.111,0.826"/>
		<path style="fill:none;stroke:#000000;stroke-linecap:round;stroke-linejoin:round;stroke-miterlimit:10;" d="M8.192,14.242
			c-0.113-0.282-0.181-0.581-0.202-0.884c-0.04-0.588,0.114-1.202,0.49-1.655c0.377-0.453,0.991-0.722,1.571-0.616"/>
		<path style="fill:none;stroke:#000000;stroke-linecap:round;stroke-linejoin:round;stroke-miterlimit:10;" d="M8.259,86.929
			c-0.123-0.374-0.221-0.761-0.233-1.154s0.068-0.797,0.276-1.131c0.331-0.53,0.993-0.832,1.61-0.735"/>
	</g>
</g>
<g id="Layer_1">
</g>
</svg>
