<?xml version="1.0" encoding="iso-8859-1"?>
<!-- Generator: Adobe Illustrator 23.0.5, SVG Export Plug-In . SVG Version: 6.00 Build 0)  -->
<svg version="1.1" xmlns="http://www.w3.org/2000/svg" xmlns:xlink="http://www.w3.org/1999/xlink" x="0px" y="0px"
	 viewBox="0 0 100 100" style="enable-background:new 0 0 100 100;" xml:space="preserve">
<g id="State">
	<g>
		<path style="fill:#FFFFFF;" d="M30.611,43.593c-0.848-4.52,1.336-9.207,4.738-12.439c5.38-5.112,13.881-6.949,21.027-4.545
			s12.587,8.932,13.458,16.147"/>
		<path style="fill:none;stroke:#000000;stroke-width:2;stroke-linecap:round;stroke-linejoin:round;stroke-miterlimit:10;" d="
			M30.611,43.593c-0.848-4.52,1.336-9.207,4.738-12.439c5.38-5.112,13.881-6.949,21.027-4.545s12.587,8.932,13.458,16.147"/>
		<path style="fill:#FFFFFF;" d="M89.155,89.853c0.216-12.585-0.057-24.919,0.026-37.435c0.022-3.418-2.715-6.208-6.132-6.267
			c-3.923-0.068-7.846-0.019-11.769-0.348L28.72,46.429c-3.817,0.32-7.633,0.028-11.45-0.096c-3.541-0.115-6.472,2.721-6.45,6.264
			c0.078,12.455-0.191,24.731,0.024,37.256H89.155z"/>
		<path style="fill:none;stroke:#000000;stroke-width:2;stroke-linecap:round;stroke-linejoin:round;stroke-miterlimit:10;" d="
			M89.155,89.853c0.216-12.585-0.057-24.919,0.026-37.435c0.022-3.418-2.715-6.208-6.132-6.267
			c-3.923-0.068-7.846-0.019-11.769-0.348L28.72,46.429c-3.817,0.32-7.633,0.028-11.45-0.096c-3.541-0.115-6.472,2.721-6.45,6.264
			c0.078,12.455-0.191,24.731,0.024,37.256H89.155z"/>
		<path style="fill:#FFFFFF;" d="M41.37,82.737c-0.171-9.243-0.343-20.106-0.514-29.349h-7.259
			c0.171,9.243,0.343,20.106,0.514,29.349H41.37z"/>
		<path style="fill:#FFFFFF;" d="M66.667,82.737c-0.171-9.243-0.343-20.106-0.514-29.349h-7.259
			c0.171,9.243,0.343,20.106,0.514,29.349H66.667z"/>
		<path style="fill:#0073AA;" d="M25.019,49.397c-0.025-0.489-0.051-1.496-0.076-2.547c-0.044-1.82,1.399-3.327,3.219-3.37
			c4.034-0.094,7.977-0.296,12.079-0.309c10.602-0.034,21.205-0.067,31.806-0.233c1.826-0.029,3.326,1.43,3.344,3.256
			c0.011,1.131,0.021,2.237,0.03,2.777c0.041,2.346-1.847,4.273-4.193,4.28l-41.994,0.137C26.99,53.395,25.135,51.639,25.019,49.397
			z"/>
		<path style="fill:#0073AA;" d="M59.697,10.147c-3.092,0.598-6.257,0.814-9.402,0.641c0.056,1.841-0.346,5.692-0.29,7.533
			c3.241-0.157,6.461-0.274,9.702-0.43L59.697,10.147z"/>
		<line style="fill:#FFFFFF;" x1="50.005" y1="18.321" x2="50.005" y2="25.563"/>
		<path style="fill:#FFFFFF;" d="M75.29,58.671c2.72-0.114,5.44-0.229,8.16-0.343"/>
		
			<line style="fill:none;stroke:#000000;stroke-width:2;stroke-linecap:round;stroke-linejoin:round;stroke-miterlimit:10;" x1="5.056" y1="89.853" x2="94.944" y2="89.853"/>
		<path style="fill:none;stroke:#000000;stroke-width:2;stroke-linecap:round;stroke-linejoin:round;stroke-miterlimit:10;" d="
			M41.37,82.737c-0.171-9.243-0.343-20.106-0.514-29.349h-7.259c0.171,9.243,0.343,20.106,0.514,29.349H41.37z"/>
		<path style="fill:none;stroke:#000000;stroke-width:2;stroke-linecap:round;stroke-linejoin:round;stroke-miterlimit:10;" d="
			M66.667,82.737c-0.171-9.243-0.343-20.106-0.514-29.349h-7.259c0.171,9.243,0.343,20.106,0.514,29.349H66.667z"/>
		<path style="fill:none;stroke:#000000;stroke-width:2;stroke-linecap:round;stroke-linejoin:round;stroke-miterlimit:10;" d="
			M25.019,49.397c-0.025-0.489-0.051-1.496-0.076-2.547c-0.044-1.82,1.399-3.327,3.219-3.37c4.034-0.094,7.977-0.296,12.079-0.309
			c10.602-0.034,21.205-0.067,31.806-0.233c1.826-0.029,3.326,1.43,3.344,3.256c0.011,1.131,0.021,2.237,0.03,2.777
			c0.041,2.346-1.847,4.273-4.193,4.28l-41.994,0.137C26.99,53.395,25.135,51.639,25.019,49.397z"/>
		<path style="fill:none;stroke:#000000;stroke-width:2;stroke-linecap:round;stroke-linejoin:round;stroke-miterlimit:10;" d="
			M59.697,10.147c-3.092,0.598-6.257,0.814-9.402,0.641c0.056,1.841-0.346,5.692-0.29,7.533c3.241-0.157,6.461-0.274,9.702-0.43
			L59.697,10.147z"/>
		
			<line style="fill:none;stroke:#000000;stroke-width:2;stroke-linecap:round;stroke-linejoin:round;stroke-miterlimit:10;" x1="50.005" y1="18.321" x2="50.005" y2="25.563"/>
		<path style="fill:none;stroke:#000000;stroke-width:2;stroke-linecap:round;stroke-linejoin:round;stroke-miterlimit:10;" d="
			M16.55,58.671c2.72-0.114,5.44-0.229,8.16-0.343"/>
		<path style="fill:none;stroke:#000000;stroke-width:2;stroke-linecap:round;stroke-linejoin:round;stroke-miterlimit:10;" d="
			M16.55,64.89c2.72-0.114,5.44-0.229,8.16-0.343"/>
		<path style="fill:none;stroke:#000000;stroke-width:2;stroke-linecap:round;stroke-linejoin:round;stroke-miterlimit:10;" d="
			M16.55,71.109c2.72-0.114,5.44-0.229,8.16-0.343"/>
		<path style="fill:none;stroke:#000000;stroke-width:2;stroke-linecap:round;stroke-linejoin:round;stroke-miterlimit:10;" d="
			M16.55,77.328c2.72-0.114,5.44-0.229,8.16-0.343"/>
		<path style="fill:none;stroke:#000000;stroke-width:2;stroke-linecap:round;stroke-linejoin:round;stroke-miterlimit:10;" d="
			M75.29,58.671c2.72-0.114,5.44-0.229,8.16-0.343"/>
		<path style="fill:none;stroke:#000000;stroke-width:2;stroke-linecap:round;stroke-linejoin:round;stroke-miterlimit:10;" d="
			M75.29,64.89c2.72-0.114,5.44-0.229,8.16-0.343"/>
		<path style="fill:none;stroke:#000000;stroke-width:2;stroke-linecap:round;stroke-linejoin:round;stroke-miterlimit:10;" d="
			M75.29,71.109c2.72-0.114,5.44-0.229,8.16-0.343"/>
		<path style="fill:none;stroke:#000000;stroke-width:2;stroke-linecap:round;stroke-linejoin:round;stroke-miterlimit:10;" d="
			M75.29,77.328c2.72-0.114,5.44-0.229,8.16-0.343"/>
		<path style="fill:#0073AA;" d="M24.947,89.853c-0.053-0.631-0.107-1.581-0.16-2.601c-0.124-2.365,1.73-4.361,4.097-4.425
			c3.678-0.101,7.298-0.271,11.052-0.283c10.31-0.033,20.621-0.065,30.929-0.22c2.32-0.035,4.23,1.809,4.27,4.129
			c0.021,1.24,0.045,2.435,0.084,3.236L24.947,89.853z"/>
		<path style="fill:none;stroke:#000000;stroke-width:2;stroke-linecap:round;stroke-linejoin:round;stroke-miterlimit:10;" d="
			M25.079,89.853c-0.053-0.631-0.107-1.581-0.16-2.601c-0.124-2.365,1.73-4.361,4.097-4.425c3.678-0.101,7.298-0.271,11.052-0.283
			c10.31-0.033,20.621-0.065,30.929-0.22c2.32-0.035,4.23,1.809,4.27,4.129c0.021,1.24,0.045,2.435,0.084,3.236L25.079,89.853z"/>
		<g>
			
				<line style="fill:none;stroke:#000000;stroke-linecap:round;stroke-linejoin:round;stroke-miterlimit:10;" x1="35.052" y1="53.389" x2="33.613" y2="54.827"/>
			
				<line style="fill:none;stroke:#000000;stroke-linecap:round;stroke-linejoin:round;stroke-miterlimit:10;" x1="38.854" y1="53.389" x2="33.685" y2="58.557"/>
			
				<line style="fill:none;stroke:#000000;stroke-linecap:round;stroke-linejoin:round;stroke-miterlimit:10;" x1="40.885" y1="55.16" x2="33.757" y2="62.288"/>
			
				<line style="fill:none;stroke:#000000;stroke-linecap:round;stroke-linejoin:round;stroke-miterlimit:10;" x1="40.948" y1="58.89" x2="33.82" y2="66.018"/>
			
				<line style="fill:none;stroke:#000000;stroke-linecap:round;stroke-linejoin:round;stroke-miterlimit:10;" x1="41.02" y1="62.629" x2="33.883" y2="69.766"/>
			
				<line style="fill:none;stroke:#000000;stroke-linecap:round;stroke-linejoin:round;stroke-miterlimit:10;" x1="41.083" y1="66.36" x2="33.946" y2="73.497"/>
			
				<line style="fill:none;stroke:#000000;stroke-linecap:round;stroke-linejoin:round;stroke-miterlimit:10;" x1="41.146" y1="70.099" x2="34.009" y2="77.245"/>
			<polyline style="fill:none;stroke:#000000;stroke-linecap:round;stroke-linejoin:round;stroke-miterlimit:10;" points="
				41.209,73.838 34.072,80.976 34.072,80.985 			"/>
			
				<line style="fill:none;stroke:#000000;stroke-linecap:round;stroke-linejoin:round;stroke-miterlimit:10;" x1="41.272" y1="77.569" x2="36.103" y2="82.737"/>
			
				<line style="fill:none;stroke:#000000;stroke-linecap:round;stroke-linejoin:round;stroke-miterlimit:10;" x1="41.344" y1="81.308" x2="39.915" y2="82.737"/>
		</g>
		<g>
			
				<line style="fill:none;stroke:#000000;stroke-linecap:round;stroke-linejoin:round;stroke-miterlimit:10;" x1="60.355" y1="53.389" x2="58.908" y2="54.827"/>
			
				<line style="fill:none;stroke:#000000;stroke-linecap:round;stroke-linejoin:round;stroke-miterlimit:10;" x1="64.148" y1="53.389" x2="58.98" y2="58.566"/>
			
				<line style="fill:none;stroke:#000000;stroke-linecap:round;stroke-linejoin:round;stroke-miterlimit:10;" x1="66.18" y1="55.16" x2="59.052" y2="62.288"/>
			
				<line style="fill:none;stroke:#000000;stroke-linecap:round;stroke-linejoin:round;stroke-miterlimit:10;" x1="66.243" y1="58.899" x2="59.115" y2="66.027"/>
			
				<line style="fill:none;stroke:#000000;stroke-linecap:round;stroke-linejoin:round;stroke-miterlimit:10;" x1="66.315" y1="62.629" x2="59.187" y2="69.757"/>
			
				<line style="fill:none;stroke:#000000;stroke-linecap:round;stroke-linejoin:round;stroke-miterlimit:10;" x1="66.378" y1="66.36" x2="59.25" y2="73.497"/>
			
				<line style="fill:none;stroke:#000000;stroke-linecap:round;stroke-linejoin:round;stroke-miterlimit:10;" x1="66.441" y1="70.099" x2="59.321" y2="77.227"/>
			
				<line style="fill:none;stroke:#000000;stroke-linecap:round;stroke-linejoin:round;stroke-miterlimit:10;" x1="66.504" y1="73.838" x2="59.384" y2="80.958"/>
			
				<line style="fill:none;stroke:#000000;stroke-linecap:round;stroke-linejoin:round;stroke-miterlimit:10;" x1="66.566" y1="77.578" x2="61.407" y2="82.737"/>
			
				<line style="fill:none;stroke:#000000;stroke-linecap:round;stroke-linejoin:round;stroke-miterlimit:10;" x1="66.638" y1="81.308" x2="65.209" y2="82.737"/>
		</g>
		<path style="fill:none;stroke:#000000;stroke-linecap:round;stroke-linejoin:round;stroke-miterlimit:10;" d="M35.418,39.659
			c1.102-4.79,5.274-8.722,10.121-9.539"/>
		<path style="fill:none;stroke:#000000;stroke-linecap:round;stroke-linejoin:round;stroke-miterlimit:10;" d="M42.875,33.965
			c2.922-2.78,7.315-3.915,11.218-2.9"/>
		<path style="fill:none;stroke:#000000;stroke-linecap:round;stroke-linejoin:round;stroke-miterlimit:10;" d="M49.436,49.677
			c6.098,0.333,12.231,0.031,18.267-0.898"/>
		<path style="fill:none;stroke:#000000;stroke-linecap:round;stroke-linejoin:round;stroke-miterlimit:10;" d="M45.722,47.829
			c2.628-0.117,5.256-0.234,7.885-0.351"/>
		<path style="fill:none;stroke:#000000;stroke-linecap:round;stroke-linejoin:round;stroke-miterlimit:10;" d="M34.997,86.926
			c5.758-0.184,11.516-0.368,17.274-0.553"/>
	</g>
</g>
<g id="Layer_1">
</g>
</svg>
