<?xml version="1.0" encoding="iso-8859-1"?>
<!-- Generator: Adobe Illustrator 23.0.5, SVG Export Plug-In . SVG Version: 6.00 Build 0)  -->
<svg version="1.1" xmlns="http://www.w3.org/2000/svg" xmlns:xlink="http://www.w3.org/1999/xlink" x="0px" y="0px"
	 viewBox="0 0 110 110" style="enable-background:new 0 0 110 110;" xml:space="preserve">
<g id="strategy">
	<g>
		<path style="fill:#FFFFFF;" d="M73.508,73.781l-37.829-0.162c-1.923-4.206-0.876-9.234,1.21-13.368
			c2.085-4.134,5.118-7.717,7.411-11.743c1.002-1.751,1.859-3.647,2.401-5.596c-0.758,0.307-1.553,0.533-2.356,0.668
			c-2.302,0.406-4.748,0.09-6.761-1.074c-2.591,1.354-5.262,2.663-7.889,3.99c-1.571,0.794-3.484,0.551-4.739-0.668
			c-0.027-0.027-0.054-0.054-0.081-0.072c-2.735-2.69-2.681-7.122,0.018-9.848c4.54-4.603,8.954-9.288,13.603-13.819
			c-1.336-1.923-1.011-4.495,0.65-6.12c1.164-1.137,2.266-2.356,3.376-3.52c-0.135-0.695-0.316-1.444-1.345-7.447
			c7.266,1.914,14.65,3.926,20.995,7.952c9.64,6.111,16.121,16.69,17.962,27.945C81.966,52.164,79.312,63.961,73.508,73.781z"/>
		<path style="fill:none;stroke:#000000;stroke-width:2;stroke-linecap:round;stroke-linejoin:round;stroke-miterlimit:10;" d="
			M35.678,73.618c-1.923-4.206-0.876-9.234,1.21-13.368s5.118-7.717,7.411-11.743c1.002-1.751,1.859-3.647,2.401-5.596"/>
		<path style="fill:none;stroke:#000000;stroke-width:2;stroke-linecap:round;stroke-linejoin:round;stroke-miterlimit:10;" d="
			M53.229,23.975c2.42,2.125,3.31,5.678,2.646,8.83s-2.714,5.894-5.26,7.868c-1.84,1.427-3.982,2.508-6.276,2.91
			c-2.294,0.402-4.744,0.092-6.761-1.074c-2.582,1.352-5.257,2.658-7.884,3.988c-1.569,0.794-3.482,0.553-4.744-0.672
			c-0.024-0.024-0.049-0.047-0.073-0.071c-2.743-2.684-2.682-7.118,0.013-9.85c4.54-4.602,8.953-9.285,13.604-13.815
			c0-0.001,0-0.002,0-0.004c-1.34-1.919-1.015-4.495,0.648-6.116c1.167-1.137,2.266-2.36,3.377-3.519
			c-0.14-0.695-0.321-1.444-1.35-7.449c7.267,1.919,14.652,3.925,20.999,7.95c9.636,6.111,16.122,16.689,17.957,27.951
			s-0.815,23.062-6.624,32.883"/>
		<path style="fill:#0073AA;" d="M79.729,77.644c-0.002-0.158-0.005-0.315-0.007-0.473c-0.031-2.173-1.832-3.888-4.005-3.822
			c-12.274,0.375-24.56,0.245-36.841,0.115l-4.535-0.048c-2.088-0.022-3.817,1.615-3.911,3.701
			c-0.001,0.026-0.002,0.052-0.004,0.077c-0.099,2.194,1.645,4.03,3.84,4.047l41.557,0.321C77.993,81.58,79.76,79.813,79.729,77.644
			z"/>
		<path style="fill:#0073AA;" d="M87.154,101.08c-0.002-0.158-0.005-0.315-0.007-0.473c-0.031-2.173-1.832-3.888-4.005-3.822
			c-12.274,0.375-39.41,0.245-51.69,0.115l-4.535-0.048c-2.088-0.022-3.817,1.615-3.911,3.701c-0.001,0.026-0.002,0.052-0.004,0.077
			c-0.099,2.194,1.645,4.03,3.84,4.047L83.249,105C85.418,105.017,87.185,103.249,87.154,101.08z"/>
		<path style="fill:none;stroke:#000000;stroke-width:2;stroke-linecap:round;stroke-linejoin:round;stroke-miterlimit:10;" d="
			M79.729,77.644c-0.002-0.158-0.005-0.315-0.007-0.473c-0.031-2.173-1.832-3.888-4.005-3.822
			c-12.274,0.375-24.56,0.245-36.841,0.115l-4.535-0.048c-2.088-0.022-3.817,1.615-3.911,3.701
			c-0.001,0.026-0.002,0.052-0.004,0.077c-0.099,2.194,1.645,4.03,3.84,4.047l41.557,0.321C77.993,81.58,79.76,79.813,79.729,77.644
			z"/>
		<path style="fill:#FFFFFF;" d="M28.243,96.784c-0.094-3.238-0.409-6.872-0.646-10.366c-0.181-2.671,1.923-4.94,4.599-4.991
			c8.695-0.163,17.566,0.043,26.179-0.29c6.318-0.244,12.654-0.488,18.963-0.184c2.401,0.116,4.306,2.054,4.431,4.454
			c0.193,3.716,0.498,7.425,0.558,11.149c-0.009-0.215-0.017-0.431-0.026-0.646L28.243,96.784z"/>
		<path style="fill:none;stroke:#000000;stroke-width:2;stroke-linecap:round;stroke-linejoin:round;stroke-miterlimit:10;" d="
			M28.243,96.784c-0.094-3.238-0.409-6.872-0.646-10.366c-0.181-2.671,1.923-4.94,4.599-4.991c8.695-0.163,17.566,0.043,26.179-0.29
			c6.318-0.244,12.654-0.488,18.963-0.184c2.401,0.116,4.306,2.054,4.431,4.454c0.193,3.716,0.498,7.425,0.558,11.149
			c-0.009-0.215-0.017-0.431-0.026-0.646"/>
		<path style="fill:none;stroke:#000000;stroke-width:2;stroke-linecap:round;stroke-linejoin:round;stroke-miterlimit:10;" d="
			M87.154,101.08c-0.002-0.158-0.005-0.315-0.007-0.473c-0.031-2.173-1.832-3.888-4.005-3.822
			c-12.274,0.375-39.41,0.245-51.69,0.115l-4.535-0.048c-2.088-0.022-3.817,1.615-3.911,3.701c-0.001,0.026-0.002,0.052-0.004,0.077
			c-0.099,2.194,1.645,4.03,3.84,4.047L83.249,105C85.418,105.017,87.185,103.249,87.154,101.08z"/>
		<path style="fill:none;stroke:#000000;stroke-width:2;stroke-linecap:round;stroke-linejoin:round;stroke-miterlimit:10;" d="
			M69.315,29.583c6.632,10.706,7.009,24.996,0.95,36.037"/>
		<path style="fill:#0073AA;" d="M40.902,28.656c0.39,0.826,1.257,1.406,2.17,1.448c0.913,0.043,1.831-0.453,2.296-1.239
			c0.379-0.641,0.454-1.453,0.197-2.152c-0.258-0.698-0.844-1.268-1.551-1.502C41.986,24.541,39.983,26.705,40.902,28.656z"/>
		<path style="fill:none;stroke:#000000;stroke-width:2;stroke-linecap:round;stroke-linejoin:round;stroke-miterlimit:10;" d="
			M40.902,28.656c0.39,0.826,1.257,1.406,2.17,1.448c0.913,0.043,1.831-0.453,2.296-1.239c0.379-0.641,0.454-1.453,0.197-2.152
			c-0.258-0.698-0.844-1.268-1.551-1.502C41.986,24.541,39.983,26.705,40.902,28.656z"/>
		<g>
			
				<line style="fill:none;stroke:#000000;stroke-linecap:round;stroke-linejoin:round;stroke-miterlimit:10;" x1="36.15" y1="81.38" x2="27.83" y2="89.7"/>
			
				<line style="fill:none;stroke:#000000;stroke-linecap:round;stroke-linejoin:round;stroke-miterlimit:10;" x1="41.4" y1="81.35" x2="28.15" y2="94.6"/>
			
				<line style="fill:none;stroke:#000000;stroke-linecap:round;stroke-linejoin:round;stroke-miterlimit:10;" x1="46.63" y1="81.34" x2="31.24" y2="96.73"/>
			
				<line style="fill:none;stroke:#000000;stroke-linecap:round;stroke-linejoin:round;stroke-miterlimit:10;" x1="51.89" y1="81.3" x2="36.54" y2="96.65"/>
			
				<line style="fill:none;stroke:#000000;stroke-linecap:round;stroke-linejoin:round;stroke-miterlimit:10;" x1="57.23" y1="81.18" x2="41.85" y2="96.56"/>
			
				<line style="fill:none;stroke:#000000;stroke-linecap:round;stroke-linejoin:round;stroke-miterlimit:10;" x1="62.65" y1="80.98" x2="47.15" y2="96.48"/>
			
				<line style="fill:none;stroke:#000000;stroke-linecap:round;stroke-linejoin:round;stroke-miterlimit:10;" x1="68.01" y1="80.84" x2="52.46" y2="96.39"/>
			
				<line style="fill:none;stroke:#000000;stroke-linecap:round;stroke-linejoin:round;stroke-miterlimit:10;" x1="73.24" y1="80.83" x2="57.77" y2="96.3"/>
			
				<line style="fill:none;stroke:#000000;stroke-linecap:round;stroke-linejoin:round;stroke-miterlimit:10;" x1="78.21" y1="81.08" x2="63.07" y2="96.22"/>
			
				<line style="fill:none;stroke:#000000;stroke-linecap:round;stroke-linejoin:round;stroke-miterlimit:10;" x1="81.17" y1="83.34" x2="68.38" y2="96.13"/>
			
				<line style="fill:none;stroke:#000000;stroke-linecap:round;stroke-linejoin:round;stroke-miterlimit:10;" x1="81.91" y1="87.82" x2="73.68" y2="96.05"/>
			
				<line style="fill:none;stroke:#000000;stroke-linecap:round;stroke-linejoin:round;stroke-miterlimit:10;" x1="82.2" y1="92.75" x2="78.99" y2="95.96"/>
		</g>
		<path style="fill:none;stroke:#000000;stroke-linecap:round;stroke-linejoin:round;stroke-miterlimit:10;" d="M27.67,41.508
			c-0.869-1.114-0.715-2.769-0.01-3.994c0.705-1.225,1.856-2.117,2.977-2.976"/>
		<path style="fill:none;stroke:#000000;stroke-linecap:round;stroke-linejoin:round;stroke-miterlimit:10;" d="M32.033,33.312
			c0.178-0.179,0.357-0.358,0.535-0.537"/>
		<path style="fill:none;stroke:#000000;stroke-linecap:round;stroke-linejoin:round;stroke-miterlimit:10;" d="M40.737,68.359
			c-0.997-1.367-0.73-3.323,0.088-4.805c0.817-1.482,2.091-2.648,3.162-3.958c1.729-2.116,2.943-4.649,3.508-7.322"/>
		<path style="fill:none;stroke:#000000;stroke-linecap:round;stroke-linejoin:round;stroke-miterlimit:10;" d="M50.905,11.751
			c2.409,0.667,4.585,2.151,6.085,4.151"/>
	</g>
</g>
<g id="Layer_1">
</g>
</svg>
